
<svg width="139px" height="20px" viewBox="0 0 139 20" version="1.1" xmlns="http://www.w3.org/2000/svg" xmlns:xlink="http://www.w3.org/1999/xlink">
    <defs>
        <path d="M1.62900027,2.96499836 C0.738000121,2.96499836 0.585000096,4.27899857 0.261000043,4.27899857 C0.144000024,4.27899857 0.0900000148,4.18899856 0.0900000148,4.05399853 C0.0900000148,3.53199845 0.828000136,2.29899825 1.51200025,2.29899825 C2.82600046,2.29899825 3.35700055,4.13499855 3.76200062,5.52099877 C4.19400069,6.97899901 4.68900077,11.1459997 4.84200079,12.838 C5.24700086,17.2390007 5.25600086,17.2570007 5.25600086,17.2930007 C5.25600086,17.6530008 5.25600086,17.9770008 4.99500082,17.9770008 C4.65300076,17.9770008 4.63500076,17.4010007 4.63500076,16.9870007 C4.63500076,14.7370003 4.2660007,11.3079997 3.79800062,8.01399918 C3.41100056,5.34099874 2.66400044,2.96499836 1.62900027,2.96499836 Z M9.30600042,10.0659995 C9.54000045,10.0659995 9.63900047,10.1199995 9.63900047,10.2189995 C9.63900047,10.6599996 8.32500026,10.5519996 8.32500026,10.9209997 C8.32500026,11.5419998 10.0350005,11.2179997 10.0350005,12.2529999 C10.0350005,12.856 9.12600039,13.198 8.43300027,13.198 C8.01900021,13.198 7.69500015,13.081 7.69500015,12.811 C7.69500015,12.721 7.72200016,12.6219999 7.81200017,12.6129999 C7.89300018,12.6129999 8.11800022,12.748 8.46000028,12.748 C8.94600036,12.748 9.53100045,12.5949999 9.53100045,12.2529999 C9.53100045,11.6949998 7.76700016,11.8029998 7.76700016,10.9119997 C7.76700016,10.4619996 8.65800031,10.0659995 9.30600042,10.0659995 Z M17.001001,12.973 C16.740001,13.117 16.3800009,13.18 16.0650009,13.18 C14.5890006,13.18 14.4900006,11.6949998 14.1480006,11.6769998 C13.9500005,12.4149999 13.1670004,13.126 12.5550003,13.126 C11.8980002,13.126 11.5920001,12.6759999 11.5920001,11.9289998 C11.5920001,11.0379997 12.1050002,9.9309995 13.1490004,9.9309995 C13.5900005,9.9309995 13.7700005,10.1559995 14.1480006,10.6419996 C14.2740006,10.8039996 14.4360006,10.6959996 14.5260006,10.9659997 C14.6970006,11.5059998 15.2640007,12.811 16.0380009,12.811 C16.596001,12.811 16.794001,12.6399999 16.857001,12.6399999 C16.965001,12.6399999 17.082001,12.802 17.082001,12.883 C17.082001,12.928 17.028001,12.955 17.001001,12.973 Z M12.0240002,11.7129998 C12.0240002,12.1539999 12.1770002,12.5769999 12.4830003,12.5769999 C12.9870004,12.5769999 13.7520005,11.7489998 13.7520005,11.0289997 C13.7520005,10.7679996 13.4640004,10.4619996 13.1490004,10.4619996 C12.5280003,10.4619996 12.0600002,10.9749997 12.0240002,11.7129998 Z M17.6040001,10.9749997 L17.7750002,10.6419996 C17.7030001,10.2009995 17.6670001,9.72399946 17.6670001,9.22899938 C17.6670001,6.924999 18.3600002,4.41399859 19.4940004,4.41399859 C20.0250005,4.41399859 20.3940006,5.0799987 20.3940006,5.78199882 C20.3940006,7.4919991 19.1160004,9.57999944 18.2790002,10.7499996 C18.4770003,11.9109998 18.9630003,12.757 19.8360005,12.757 C20.4480006,12.757 21.0780007,12.3429999 21.1230007,11.1909997 C20.3850006,10.9569997 20.1330005,10.2999996 20.1330005,9.91299949 C20.1330005,9.63399945 20.3130006,9.39999941 20.6370006,9.39999941 C21.2220007,9.39999941 21.5100008,10.0659995 21.5820008,10.8219996 C21.6810008,10.8849997 21.7980008,10.9029997 21.9420008,10.9029997 C22.4370009,10.9029997 23.094001,10.6059996 23.175001,10.5969996 C23.229001,10.5969996 23.247001,10.6869996 23.247001,10.7409996 C23.220001,11.1279997 22.4010009,11.3079997 21.8790008,11.3079997 C21.7620008,11.3079997 21.6630008,11.2989997 21.5910008,11.2809997 C21.4020007,12.703 20.7630006,13.234 19.8450005,13.234 C18.8370003,13.234 18.2160002,12.4149999 17.9010002,11.2449997 L17.8560002,11.3079997 C17.7750002,11.4069997 17.7120001,11.4429997 17.6670001,11.4429997 C17.5860001,11.4429997 17.5500001,11.3709997 17.5500001,11.2359997 C17.5500001,11.1459997 17.5680001,11.0559997 17.6040001,10.9749997 Z M19.4400004,5.0979987 C18.6840003,5.0979987 18.1620002,7.23999906 18.1620002,9.26499939 C18.1620002,9.50799943 18.1620002,9.74199947 18.1800002,9.9669995 C18.2430002,9.85899949 18.3150002,9.75999947 18.3870003,9.65199945 C19.0980004,8.55399927 19.8900005,7.33899907 19.8900005,5.80899882 C19.8900005,5.34099874 19.6740005,5.0979987 19.4400004,5.0979987 Z M20.6820006,9.88599949 C20.6010006,9.88599949 20.5650006,9.9219995 20.5650006,9.9759995 C20.5650006,10.1289995 20.7810006,10.5429996 21.0960007,10.6689996 C21.0960007,10.5159996 20.9070007,9.88599949 20.6820006,9.88599949 Z M26.5320006,12.892 C26.5320006,13.018 25.7850005,13.243 25.3440004,13.243 C23.9400002,13.243 23.5350001,11.9289998 23.5350001,11.3889997 C23.5350001,10.5249996 23.8500002,9.70599946 24.7050003,9.70599946 C25.0650004,9.70599946 25.3260004,10.0119995 25.3260004,10.3809996 C25.3260004,10.8939997 25.1100004,11.6859998 24.1920003,12.0099998 C24.3540003,12.6039999 24.9930004,12.865 25.3800004,12.865 C25.8660005,12.865 26.2530006,12.6399999 26.3070006,12.6399999 C26.4240006,12.6399999 26.5320006,12.802 26.5320006,12.892 Z M24.8130004,10.5789996 C24.8130004,10.4979996 24.7860004,10.2729996 24.6060003,10.2729996 C24.1650003,10.2729996 24.0300002,10.8489996 24.0300002,11.2449997 C24.0300002,11.4339997 24.0750002,11.6049998 24.1110002,11.6049998 C24.3540003,11.6049998 24.8130004,11.0919997 24.8130004,10.5789996 Z M29.5020005,13.198 C27.5670002,13.198 27.0720001,11.0109997 27.0720001,9.18399937 C27.0720001,6.72699897 27.9000003,4.60299862 28.5210004,4.60299862 C29.0520005,4.60299862 29.2950005,5.20599872 29.2950005,5.90799884 C29.2950005,7.59999911 28.5570004,9.86799949 27.7110002,10.9029997 C27.9630003,11.9739998 28.5930004,12.811 29.5380005,12.811 C30.0780006,12.811 30.2580006,12.6399999 30.3300007,12.6399999 C30.4200007,12.6399999 30.5550007,12.784 30.5550007,12.892 C30.5550007,13.018 29.8890006,13.198 29.5020005,13.198 Z M28.4670004,5.22399873 C27.9720003,5.28699874 27.4950002,7.89699916 27.4950002,9.46299942 C27.4950002,9.81399948 27.5130002,10.1109995 27.5760002,10.3089996 C27.9990003,9.90399949 28.7910004,7.25799906 28.7910004,5.93499884 C28.7910004,5.50299877 28.7100004,5.22399873 28.4670004,5.22399873 Z M33.5250005,13.198 C31.5900002,13.198 31.0950001,11.0109997 31.0950001,9.18399937 C31.0950001,6.72699897 31.9230003,4.60299862 32.5440004,4.60299862 C33.0750005,4.60299862 33.3180005,5.20599872 33.3180005,5.90799884 C33.3180005,7.59999911 32.5800004,9.86799949 31.7340002,10.9029997 C31.9860003,11.9739998 32.6160004,12.811 33.5610005,12.811 C34.1010006,12.811 34.2810006,12.6399999 34.3530007,12.6399999 C34.4430007,12.6399999 34.5780007,12.784 34.5780007,12.892 C34.5780007,13.018 33.9120006,13.198 33.5250005,13.198 Z M32.4900004,5.22399873 C31.9950003,5.28699874 31.5180002,7.89699916 31.5180002,9.46299942 C31.5180002,9.81399948 31.5360002,10.1109995 31.5990002,10.3089996 C32.0220003,9.90399949 32.8140004,7.25799906 32.8140004,5.93499884 C32.8140004,5.50299877 32.7330004,5.22399873 32.4900004,5.22399873 Z M40.572001,12.973 C40.311001,13.117 39.9510009,13.18 39.6360009,13.18 C38.1600006,13.18 38.0610006,11.6949998 37.7190006,11.6769998 C37.5210005,12.4149999 36.7380004,13.126 36.1260003,13.126 C35.4690002,13.126 35.1630001,12.6759999 35.1630001,11.9289998 C35.1630001,11.0379997 35.6760002,9.9309995 36.7200004,9.9309995 C37.1610005,9.9309995 37.3410005,10.1559995 37.7190006,10.6419996 C37.8450006,10.8039996 38.0070006,10.6959996 38.0970006,10.9659997 C38.2680006,11.5059998 38.8350007,12.811 39.6090009,12.811 C40.167001,12.811 40.365001,12.6399999 40.428001,12.6399999 C40.536001,12.6399999 40.653001,12.802 40.653001,12.883 C40.653001,12.928 40.599001,12.955 40.572001,12.973 Z M35.5950002,11.7129998 C35.5950002,12.1539999 35.7480002,12.5769999 36.0540003,12.5769999 C36.5580004,12.5769999 37.3230005,11.7489998 37.3230005,11.0289997 C37.3230005,10.7679996 37.0350004,10.4619996 36.7200004,10.4619996 C36.0990003,10.4619996 35.6310002,10.9749997 35.5950002,11.7129998 Z M43.92,13.9090001 C43.3709999,13.9450002 43.1009999,13.9990002 42.8399998,13.9990002 C42.6419998,13.9990002 42.5699998,13.8820001 42.5699998,13.8460001 C42.5699998,13.6300001 43.3709999,13.5760001 43.884,13.5130001 C45.1440002,13.3600001 47.0520005,13.072 48.1140007,10.0929995 C48.1140007,9.91299949 47.8800007,9.80499948 47.8800007,9.53499943 C47.8800007,9.3369994 48.2490007,9.21999938 48.3300007,9.13899937 C48.5100008,9.05799935 48.7350008,7.85199916 48.9420008,6.66399896 L49.0770008,5.88999883 C49.0770008,5.34099874 49.1850009,4.75599865 49.2750009,4.19799856 C49.3200009,3.94599852 49.2930009,3.40599843 49.5540009,3.40599843 C49.806001,3.44199843 49.851001,4.02699853 49.905001,4.69299864 C50.175001,8.00499918 50.4990011,9.60699944 50.8050011,10.7499996 C51.1200012,10.8309996 51.6060013,10.8399996 51.7770013,10.8399996 C52.0740013,10.8399996 52.5960014,10.7859996 52.9560015,10.6689996 C53.0370015,10.6419996 53.1360015,10.6149996 53.1720015,10.6149996 C53.2260015,10.6149996 53.2530015,10.6869996 53.2530015,10.7409996 C53.2170015,11.1639997 52.0290013,11.2809997 51.6240013,11.2809997 C51.4350012,11.2809997 50.9580012,11.2539997 50.9490012,11.2539997 C51.1830012,12.1719999 51.3810012,12.73 51.6510013,13.252 C51.6600013,13.27 51.6600013,13.297 51.6600013,13.3150001 C51.6600013,13.4230001 51.5520013,13.4860001 51.4260012,13.4860001 C51.3630012,13.4860001 51.3090012,13.4770001 51.2550012,13.4410001 C51.1200012,13.3600001 50.5890011,11.8479998 50.3820011,11.1639997 C49.2930009,10.9479997 48.6540008,10.4079996 48.5640008,10.4079996 C47.5560006,12.4779999 46.6470005,13.7110001 43.92,13.9090001 Z M48.8700008,9.62499945 C48.8700008,10.1199995 49.707001,10.4619996 50.247001,10.6059996 C50.247001,10.5969996 50.247001,10.5699996 50.238001,10.5519996 C50.148001,10.0929995 49.779001,7.86999916 49.6620009,6.80799899 C49.6530009,6.78099898 49.5630009,6.67299896 49.5450009,6.67299896 C49.1940009,7.95099917 49.0230008,9.06699936 48.8700008,9.62499945 Z M55.8450005,13.198 C53.9100002,13.198 53.4150001,11.0109997 53.4150001,9.18399937 C53.4150001,6.72699897 54.2430003,4.60299862 54.8640004,4.60299862 C55.3950005,4.60299862 55.6380005,5.20599872 55.6380005,5.90799884 C55.6380005,7.59999911 54.9000004,9.86799949 54.0540002,10.9029997 C54.3060003,11.9739998 54.9360004,12.811 55.8810005,12.811 C56.4210006,12.811 56.6010006,12.6399999 56.6730007,12.6399999 C56.7630007,12.6399999 56.8980007,12.784 56.8980007,12.892 C56.8980007,13.018 56.2320006,13.198 55.8450005,13.198 Z M54.8100004,5.22399873 C54.3150003,5.28699874 53.8380002,7.89699916 53.8380002,9.46299942 C53.8380002,9.81399948 53.8560002,10.1109995 53.9190002,10.3089996 C54.3420003,9.90399949 55.1340004,7.25799906 55.1340004,5.93499884 C55.1340004,5.50299877 55.0530004,5.22399873 54.8100004,5.22399873 Z M61.6770008,13.9180002 C61.7220008,13.8280001 61.7850008,13.6750001 61.8570009,13.5130001 C62.0910009,13 62.4240009,12.2799999 62.487001,12.2889999 C62.496001,12.2889999 62.514001,12.2799999 62.532001,12.2799999 C62.586001,12.2799999 62.676001,12.3069999 62.721001,12.3609999 C62.766001,12.4059999 62.775001,12.4779999 62.775001,12.5679999 C62.775001,12.6129999 62.514001,13.126 62.2710009,13.6750001 C62.1180009,14.0170002 61.9650009,14.3770002 61.8930009,14.6290003 C62.0730009,15.3220004 62.2260009,16.7080006 62.2260009,18.0850008 C62.2260009,19.9390011 61.9380009,21.7660014 60.9840007,21.7660014 C60.2820006,21.7660014 60.0390006,21.0010013 60.0390006,20.0650012 C60.0390006,19.210001 60.2730006,17.3560007 61.3260008,14.6200003 C60.8580007,12.6219999 60.2820006,11.6859998 60.1020006,11.6859998 C60.0030005,11.6859998 59.6160005,12.82 58.8420004,12.82 C57.9150002,12.82 57.6540002,11.4519997 57.4200001,11.0019997 C57.3390001,10.8579996 57.2760001,10.6779996 57.2760001,10.5429996 C57.2760001,10.3719996 57.3660001,10.2459995 57.5100001,10.2459995 C57.9330002,10.2459995 58.2300003,12.2979999 58.8420004,12.2979999 C59.5170005,12.2979999 59.6340005,10.7499996 60.1380006,10.7499996 C60.3630006,10.7499996 61.0920007,11.9109998 61.6770008,13.9180002 Z M61.5240008,15.3940004 C60.6600007,17.9230008 60.5340006,19.6960011 60.5340006,20.3620012 C60.5340006,20.7490013 60.6420007,21.2260013 61.0110007,21.2260013 C61.5420008,21.2260013 61.7310008,19.5880011 61.7310008,18.0040008 C61.7310008,16.9330006 61.6410008,15.8980005 61.5240008,15.3940004 Z M63.8010002,11.4069997 C63.8010002,12.4329999 64.9350004,12.955 65.6910005,12.955 C66.4920007,12.955 66.9420007,12.6399999 67.0320007,12.6399999 C67.1130008,12.6399999 67.2390008,12.784 67.2390008,12.874 C67.2390008,13.072 66.2130006,13.3150001 65.6370005,13.3150001 C64.9260004,13.3150001 63.2880001,13.009 63.2880001,11.3439997 C63.2880001,10.5969996 63.7110002,9.67899946 64.7100004,9.67899946 C65.4840005,9.67899946 66.3120006,10.2369995 66.3120006,11.3169997 C66.3120006,11.5779998 66.1050006,12.3699999 65.5200005,12.3699999 C64.9170004,12.3699999 64.4670003,11.6229998 64.4670003,10.7769996 C64.4670003,10.5969996 64.4850003,10.3809996 64.7010004,10.3809996 C64.9890004,10.3809996 65.0970004,10.7589996 65.0970004,10.9929997 C65.0970004,11.2269997 64.9980004,11.3079997 64.9980004,11.4339997 C64.9980004,11.7219998 65.2590005,11.8929998 65.5110005,11.8929998 C65.6910005,11.8929998 65.8800006,11.6949998 65.8800006,11.3349997 C65.8800006,10.5699996 65.2950005,10.1559995 64.7370004,10.1559995 C64.0440003,10.1559995 63.8010002,10.8579996 63.8010002,11.4069997 Z M68.3190002,10.7229996 L68.3910002,10.7229996 C68.5350003,10.8039996 68.6610003,10.7949996 68.6610003,10.9839997 C68.6610003,11.1819997 68.5440003,11.4609997 68.5440003,11.6499998 C68.5440003,12.3609999 69.1020003,12.811 69.5700004,12.811 C70.0830005,12.811 70.2540005,12.6399999 70.3350005,12.6399999 C70.4520006,12.6399999 70.5600006,12.811 70.5600006,12.892 C70.5600006,12.991 70.0650005,13.18 69.4800004,13.18 C68.2380002,13.18 67.9410002,12.1089999 67.9410002,11.2449997 C67.9410002,11.0019997 67.9950002,10.7499996 68.3190002,10.7229996 Z M67.7520001,8.34699924 C67.7520001,8.22999922 67.8780001,8.15799921 68.0490002,8.15799921 C68.2560002,8.15799921 68.4990002,8.28399923 68.5620003,8.59899928 C68.5620003,8.80599931 68.4270002,8.94099933 68.1930002,8.94099933 C67.9680002,8.94099933 67.7520001,8.55399927 67.7520001,8.34699924 Z M76.554001,12.973 C76.293001,13.117 75.9330009,13.18 75.6180009,13.18 C74.1420006,13.18 74.0430006,11.6949998 73.7010006,11.6769998 C73.5030005,12.4149999 72.7200004,13.126 72.1080003,13.126 C71.4510002,13.126 71.1450001,12.6759999 71.1450001,11.9289998 C71.1450001,11.0379997 71.6580002,9.9309995 72.7020004,9.9309995 C73.1430005,9.9309995 73.3230005,10.1559995 73.7010006,10.6419996 C73.8270006,10.8039996 73.9890006,10.6959996 74.0790006,10.9659997 C74.2500006,11.5059998 74.8170007,12.811 75.5910009,12.811 C76.149001,12.811 76.347001,12.6399999 76.410001,12.6399999 C76.518001,12.6399999 76.635001,12.802 76.635001,12.883 C76.635001,12.928 76.581001,12.955 76.554001,12.973 Z M71.5770002,11.7129998 C71.5770002,12.1539999 71.7300002,12.5769999 72.0360003,12.5769999 C72.5400004,12.5769999 73.3050005,11.7489998 73.3050005,11.0289997 C73.3050005,10.7679996 73.0170004,10.4619996 72.7020004,10.4619996 C72.0810003,10.4619996 71.6130002,10.9749997 71.5770002,11.7129998 Z M85.7340007,10.2099995 C85.3650006,10.2099995 85.1580006,10.3179996 84.8160005,10.3179996 C84.5190005,10.3179996 83.9970004,10.1199995 83.9970004,9.77799947 C83.9970004,9.3549994 84.6360005,9.3549994 84.9150005,9.30099939 C85.0230006,9.27399939 85.7610007,9.21999938 85.7610007,9.05799935 C85.7610007,9.01299935 85.7520007,8.98599934 85.7520007,8.95899934 C85.7520007,8.76099931 85.3020006,6.42099892 85.1490006,6.42099892 C84.1860004,6.51099894 83.3040003,6.65499896 82.3050001,6.65499896 C81.756,6.65499896 81.1709999,6.60099895 81.1709999,5.97099885 C81.1709999,5.83599883 81.315,5.6649988 81.468,5.6559988 C81.774,5.63799879 82.5750002,5.52099877 83.3040003,5.48499877 C83.6190003,5.47599877 84.7170005,5.51199877 84.8430005,5.25999873 C84.9060005,5.0799987 84.8430005,4.79199865 85.1130006,4.79199865 C85.3290006,4.79199865 85.3020006,5.22399873 85.5720007,5.31399874 C85.8510007,5.31399874 87.2010009,5.41299876 87.480001,5.43099876 C87.903001,5.46699877 89.1360012,5.79999882 89.1360012,6.3129989 C89.1360012,6.36699891 89.1360012,6.45699893 89.0460012,6.45699893 C88.8480012,6.45699893 88.4970011,6.16899888 88.3170011,6.14199888 C88.1550011,6.12399887 87.9840011,6.07899887 87.804001,6.07899887 C87.1290009,6.07899887 85.6980007,6.24999889 85.6980007,6.48399893 C85.7790007,6.99699902 86.0760007,8.28399923 86.2290008,9.11199936 C86.5530008,9.3189994 86.7420008,9.28299939 87.1290009,9.39099941 C87.462001,9.48999942 87.885001,9.68799946 87.912001,9.68799946 C88.1640011,9.81399948 88.4700011,9.80499948 88.4700011,10.1739995 C88.4700011,10.2369995 88.4070011,10.2639996 88.3350011,10.2639996 C88.0650011,10.2639996 87.705001,10.0029995 87.2460009,10.0029995 C86.9220009,10.0029995 86.5080008,10.0119995 86.5080008,10.2999996 C86.5080008,10.3179996 86.6790008,11.7219998 86.6790008,11.7399998 C86.6880008,11.8119998 86.7150008,11.7489998 86.8680009,13.6570001 C86.8680009,13.7560001 86.7870009,13.8100001 86.6970008,13.8100001 C86.6340008,13.8100001 86.5710008,13.7740001 86.5440008,13.7020001 C86.4810008,13.5490001 86.1660008,11.3349997 86.0580007,10.4169996 C86.0400007,10.2909996 85.8960007,10.2099995 85.7340007,10.2099995 Z M89.7660001,11.1009997 C89.7660001,10.8129996 89.9280002,10.4259996 90.2790002,10.4259996 C90.3600002,10.4259996 90.4140002,10.5249996 90.4140002,10.6599996 C90.4140002,10.7679996 90.3690002,10.9389997 90.3690002,11.1549997 C90.3690002,11.7579998 90.4320002,12.721 91.1610004,12.721 C91.5750004,12.721 91.8720005,12.1719999 91.8720005,11.7489998 C91.8720005,11.5419998 91.8450005,11.3979997 91.8090005,11.2899997 C91.0170003,11.1369997 90.6210003,10.7139996 90.6210003,10.3359996 C90.6210003,10.0659995 90.8190003,9.84099948 91.2150004,9.84099948 C91.6470004,9.84099948 92.0250005,10.2999996 92.2050005,10.8309996 C92.2140005,10.8669997 92.2590005,10.8849997 92.3400006,10.8849997 C92.9610007,10.8849997 93.7080008,10.6059996 93.8070008,10.5969996 C93.8610008,10.5969996 93.8790008,10.6869996 93.8790008,10.7409996 C93.8790008,11.1999997 92.5290006,11.2989997 92.2950006,11.3169997 C92.3130006,11.4429997 92.3130006,11.5329998 92.3130006,11.6949998 C92.3130006,12.3789999 91.9530005,13.198 91.2330004,13.198 C90.1710002,13.198 89.7660001,11.8299998 89.7660001,11.1009997 Z M91.2330004,10.2909996 C91.1790004,10.2909996 91.0980004,10.2999996 91.0980004,10.3629996 C91.0980004,10.5069996 91.3410004,10.7679996 91.7010005,10.8309996 C91.6110004,10.5789996 91.4130004,10.2909996 91.2330004,10.2909996 Z M99.1620009,13.171 C98.3610007,13.171 98.0100007,12.5499999 97.7760007,11.8659998 C97.4340006,12.5319999 96.7500005,13.126 95.9760004,13.126 C94.5540001,13.126 94.5450001,11.4879998 94.5450001,10.9929997 C94.5450001,10.6419996 94.6800001,10.4619996 94.8330002,10.4619996 C95.1300002,10.4619996 95.1930002,10.6059996 95.1930002,10.7859996 C95.1930002,10.9119997 95.1660002,11.0559997 95.1660002,11.1639997 C95.1660002,11.9019998 95.1750002,12.712 96.0480004,12.712 C96.6240005,12.712 97.2900006,12.0009998 97.4880006,11.1819997 C97.5510006,10.9839997 97.6860006,10.8579996 97.8030007,10.8579996 C98.1360007,10.8579996 98.0910007,11.0829997 98.1270007,11.2899997 C98.2710007,12.0459998 98.5950008,12.784 99.2970009,12.784 C99.5310009,12.784 99.774001,12.6399999 99.819001,12.6399999 C99.927001,12.6399999 100.044001,12.802 100.044001,12.892 C100.044001,13.009 99.4590009,13.171 99.1620009,13.171 Z M103.320001,10.7769996 C104.085001,10.7769996 104.301001,11.9289998 104.787001,12.4779999 C104.940001,12.6489999 105.120001,12.793 105.381001,12.793 C105.570001,12.793 105.867001,12.6399999 105.912001,12.6399999 C106.020001,12.6399999 106.128001,12.811 106.128001,12.901 C106.128001,12.991 105.651001,13.153 105.318001,13.153 C104.022001,13.153 103.959001,11.4249997 103.266001,11.4249997 C102.24,11.4249997 101.862,12.955 101.358,12.955 C100.998,12.955 100.422,11.6229998 100.422,10.9569997 C100.422,10.7589996 100.566,10.6329996 100.71,10.6329996 C100.827,10.6329996 100.944,10.7229996 100.944,10.9209997 C100.944,11.1279997 101.151,12.2799999 101.421,12.2799999 C101.826,12.2799999 102.078,10.7769996 103.320001,10.7769996 Z M113.301001,13.153 C113.211001,13.162 113.103001,13.171 113.067001,13.171 C111.789001,13.171 111.204001,11.0019997 111.042001,9.89499949 C110.970001,9.39099941 110.979001,9.01299935 110.943001,9.00399935 C110.790001,8.99499934 110.421001,10.3719996 110.223001,10.8309996 C110.349001,11.0379997 110.673001,11.7309998 110.673001,12.0549998 C110.673001,12.1449999 110.655001,12.1899999 110.619001,12.1989999 C110.232001,12.1629999 110.178001,11.5419998 109.944001,11.3799997 C109.800001,11.5869998 109.044001,13.3330001 107.802,13.3330001 C106.902,13.3330001 106.56,12.5499999 106.56,11.7579998 C106.56,10.6779996 107.334,10.0749995 108.504,10.0749995 C108.945001,10.0749995 109.458001,10.2189995 109.827001,10.4709996 C110.070001,10.2099995 110.952001,7.20399905 111.060001,6.76299898 C111.150001,6.39399892 111.348001,5.42199876 111.438001,4.95399868 C111.456001,4.77399865 111.555001,4.70199864 111.636001,4.70199864 C111.771001,4.70199864 111.807001,4.89999867 111.807001,5.0799987 C111.807001,5.42199876 111.393001,7.5099991 111.393001,8.0949992 C111.393001,10.3269996 112.113001,12.793 113.157001,12.793 C113.481001,12.793 113.697001,12.6399999 113.751001,12.6399999 C113.859001,12.6399999 113.976001,12.793 113.976001,12.883 C113.976001,12.991 113.607001,13.108 113.301001,13.153 Z M107.046,11.6319998 C107.046,12.2799999 107.244,12.865 107.883,12.865 C108.549,12.865 109.503001,11.2899997 109.611001,10.9569997 C109.215001,10.5879996 108.909,10.4979996 108.549,10.4979996 C107.64,10.4979996 107.136,11.0739997 107.046,11.6319998 Z M119.970001,12.973 C119.709001,13.117 119.349001,13.18 119.034001,13.18 C117.558001,13.18 117.459001,11.6949998 117.117001,11.6769998 C116.919001,12.4149999 116.136,13.126 115.524,13.126 C114.867,13.126 114.561,12.6759999 114.561,11.9289998 C114.561,11.0379997 115.074,9.9309995 116.118,9.9309995 C116.559,9.9309995 116.739,10.1559995 117.117001,10.6419996 C117.243001,10.8039996 117.405001,10.6959996 117.495001,10.9659997 C117.666001,11.5059998 118.233001,12.811 119.007001,12.811 C119.565001,12.811 119.763001,12.6399999 119.826001,12.6399999 C119.934001,12.6399999 120.051001,12.802 120.051001,12.883 C120.051001,12.928 119.997001,12.955 119.970001,12.973 Z M114.993,11.7129998 C114.993,12.1539999 115.146,12.5769999 115.452,12.5769999 C115.956,12.5769999 116.721,11.7489998 116.721,11.0289997 C116.721,10.7679996 116.433,10.4619996 116.118,10.4619996 C115.497,10.4619996 115.029,10.9749997 114.993,11.7129998 Z M122.706001,13.18 C120.159,13.18 120.564,9.99399951 120.258,8.35599924 C120.231,8.19399921 119.637,8.15799921 119.637,7.98699918 C119.637,7.5369991 120.276,7.56399911 120.348,7.30299907 C120.465,6.84399899 120.375,6.32199891 120.699,6.32199891 C120.825,6.32199891 120.843,6.72699897 120.942,7.16799904 C121.014,7.16799904 121.482,7.20399905 121.554,7.20399905 C122.463,7.20399905 122.796001,7.16799904 123.849001,7.13199904 C123.849001,7.13199904 126.009001,7.01499902 127.161001,6.879999 C128.196001,6.75399898 130.131002,6.47499893 130.221002,6.47499893 C130.374002,6.47499893 130.536002,6.53799894 130.536002,6.68199896 C130.536002,6.75399898 130.536002,6.83499899 130.464002,6.85299899 C129.573002,7.06899903 128.178001,7.23099905 127.404001,7.36599908 C126.846001,7.46499909 124.515001,7.92399917 123.192001,8.04999919 C122.283,8.1399992 121.689,8.24799922 120.987,8.29299923 C120.852,8.33799924 120.834,8.7339993 120.834,9.03099935 C120.834,11.3709997 121.365,12.811 122.814001,12.811 C123.282001,12.811 123.498001,12.6399999 123.561001,12.6399999 C123.669001,12.6399999 123.786001,12.802 123.786001,12.892 C123.786001,12.982 123.327001,13.18 122.706001,13.18 Z M125.658,10.7229996 L125.73,10.7229996 C125.874,10.8039996 126,10.7949996 126,10.9839997 C126,11.1819997 125.883,11.4609997 125.883,11.6499998 C125.883,12.3609999 126.441,12.811 126.909,12.811 C127.422001,12.811 127.593001,12.6399999 127.674001,12.6399999 C127.791001,12.6399999 127.899001,12.811 127.899001,12.892 C127.899001,12.991 127.404001,13.18 126.819,13.18 C125.577,13.18 125.28,12.1089999 125.28,11.2449997 C125.28,11.0019997 125.334,10.7499996 125.658,10.7229996 Z M125.091,8.34699924 C125.091,8.22999922 125.217,8.15799921 125.388,8.15799921 C125.595,8.15799921 125.838,8.28399923 125.901,8.59899928 C125.901,8.80599931 125.766,8.94099933 125.532,8.94099933 C125.307,8.94099933 125.091,8.55399927 125.091,8.34699924 Z M128.52,11.1009997 C128.52,10.8129996 128.682,10.4259996 129.033,10.4259996 C129.114,10.4259996 129.168,10.5249996 129.168,10.6599996 C129.168,10.7679996 129.123,10.9389997 129.123,11.1549997 C129.123,11.7579998 129.186,12.721 129.915,12.721 C130.329,12.721 130.626,12.1719999 130.626,11.7489998 C130.626,11.5419998 130.599,11.3979997 130.563,11.2899997 C129.771,11.1369997 129.375,10.7139996 129.375,10.3359996 C129.375,10.0659995 129.573,9.84099948 129.969,9.84099948 C130.401,9.84099948 130.779001,10.2999996 130.959001,10.8309996 C130.968001,10.8669997 131.013001,10.8849997 131.094001,10.8849997 C131.715001,10.8849997 132.462001,10.6059996 132.561001,10.5969996 C132.615001,10.5969996 132.633001,10.6869996 132.633001,10.7409996 C132.633001,11.1999997 131.283001,11.2989997 131.049001,11.3169997 C131.067001,11.4429997 131.067001,11.5329998 131.067001,11.6949998 C131.067001,12.3789999 130.707,13.198 129.987,13.198 C128.925,13.198 128.52,11.8299998 128.52,11.1009997 Z M129.987,10.2909996 C129.933,10.2909996 129.852,10.2999996 129.852,10.3629996 C129.852,10.5069996 130.095,10.7679996 130.455,10.8309996 C130.365,10.5789996 130.167,10.2909996 129.987,10.2909996 Z M136.179001,10.7769996 C136.944001,10.7769996 137.160001,11.9289998 137.646001,12.4779999 C137.799001,12.6489999 137.979001,12.793 138.240001,12.793 C138.429001,12.793 138.726001,12.6399999 138.771001,12.6399999 C138.879001,12.6399999 138.987001,12.811 138.987001,12.901 C138.987001,12.991 138.510001,13.153 138.177001,13.153 C136.881001,13.153 136.818001,11.4249997 136.125001,11.4249997 C135.099,11.4249997 134.721,12.955 134.217,12.955 C133.857,12.955 133.281,11.6229998 133.281,10.9569997 C133.281,10.7589996 133.425,10.6329996 133.569,10.6329996 C133.686,10.6329996 133.803,10.7229996 133.803,10.9209997 C133.803,11.1279997 134.01,12.2799999 134.28,12.2799999 C134.685,12.2799999 134.937,10.7769996 136.179001,10.7769996 Z" id="path-1"></path>
    </defs>
    <g id="Page-1" stroke="none" stroke-width="1" fill="none" fill-rule="evenodd">
        <g id="alycia.7d6e121b" transform="translate(0.000000, -2.000000)">
            <g id="Isabella-Alycia-Foundation">
                <use fill="#000000" xlink:href="#path-1"></use>
                <use fill="#FFFFFF" xlink:href="#path-1"></use>
            </g>
        </g>
    </g>
</svg>
