
<svg width="381px" height="230px" viewBox="0 0 381 230" version="1.1" xmlns="http://www.w3.org/2000/svg" xmlns:xlink="http://www.w3.org/1999/xlink">
    <g id="Page-1" stroke="none" stroke-width="1" fill="none" fill-rule="evenodd">
        <g id="footer-map">
            <path d="M33,0 C35.7613443,0 38,2.23865572 38,5 C38,7.76134428 35.7613443,10 33,10 C30.2386557,10 28,7.76134428 28,5 C28,2.23865572 30.2386557,0 33,0" id="Fill-2" fill="#03428C"></path>
            <path d="M46,0 C48.7613443,0 51,2.23865572 51,5 C51,7.76134428 48.7613443,10 46,10 C43.2386557,10 41,7.76134428 41,5 C41,2.23865572 43.2386557,0 46,0" id="Fill-4" fill="#03428C"></path>
            <path d="M60,0 C62.7613443,0 65,2.23865572 65,5 C65,7.76134428 62.7613443,10 60,10 C57.2386557,10 55,7.76134428 55,5 C55,2.23865572 57.2386557,0 60,0" id="Fill-6" fill="#03428C"></path>
            <path d="M73,0 C75.7613443,0 78,2.23865572 78,5 C78,7.76134428 75.7613443,10 73,10 C70.2386557,10 68,7.76134428 68,5 C68,2.23865572 70.2386557,0 73,0" id="Fill-8" fill="#03428C"></path>
            <path d="M87,0 C89.7613443,0 92,2.23865572 92,5 C92,7.76134428 89.7613443,10 87,10 C84.2386557,10 82,7.76134428 82,5 C82,2.23865572 84.2386557,0 87,0" id="Fill-10" fill="#03428C"></path>
            <path d="M211,0 C213.761344,0 216,2.23865572 216,5 C216,7.76134428 213.761344,10 211,10 C208.238656,10 206,7.76134428 206,5 C206,2.23865572 208.238656,0 211,0" id="Fill-12" fill="#03428C"></path>
            <path d="M376,0 C378.761344,0 381,2.23865572 381,5 C381,7.76134428 378.761344,10 376,10 C373.238656,10 371,7.76134428 371,5 C371,2.23865572 373.238656,0 376,0" id="Fill-14" fill="#03428C"></path>
            <path d="M19,14 C21.7613443,14 24,16.2386557 24,19 C24,21.7613443 21.7613443,24 19,24 C16.2386557,24 14,21.7613443 14,19 C14,16.2386557 16.2386557,14 19,14" id="Fill-16" fill="#03428C"></path>
            <path d="M33,14 C35.7613443,14 38,16.2386557 38,19 C38,21.7613443 35.7613443,24 33,24 C30.2386557,24 28,21.7613443 28,19 C28,16.2386557 30.2386557,14 33,14" id="Fill-18" fill="#03428C"></path>
            <path d="M46,14 C48.7613443,14 51,16.2386557 51,19 C51,21.7613443 48.7613443,24 46,24 C43.2386557,24 41,21.7613443 41,19 C41,16.2386557 43.2386557,14 46,14" id="Fill-20" fill="#03428C"></path>
            <path d="M60,14 C62.7613443,14 65,16.2386557 65,19 C65,21.7613443 62.7613443,24 60,24 C57.2386557,24 55,21.7613443 55,19 C55,16.2386557 57.2386557,14 60,14" id="Fill-22" fill="#03428C"></path>
            <path d="M73,14 C75.7613443,14 78,16.2386557 78,19 C78,21.7613443 75.7613443,24 73,24 C70.2386557,24 68,21.7613443 68,19 C68,16.2386557 70.2386557,14 73,14" id="Fill-24" fill="#03428C"></path>
            <path d="M87,14 C89.7613443,14 92,16.2386557 92,19 C92,21.7613443 89.7613443,24 87,24 C84.2386557,24 82,21.7613443 82,19 C82,16.2386557 84.2386557,14 87,14" id="Fill-26" fill="#03428C"></path>
            <path d="M102,14 C104.761344,14 107,16.2386557 107,19 C107,21.7613443 104.761344,24 102,24 C99.2386557,24 97,21.7613443 97,19 C97,16.2386557 99.2386557,14 102,14" id="Fill-28" fill="#03428C"></path>
            <path d="M115,14 C117.761344,14 120,16.2386557 120,19 C120,21.7613443 117.761344,24 115,24 C112.238656,24 110,21.7613443 110,19 C110,16.2386557 112.238656,14 115,14" id="Fill-30" fill="#03428C"></path>
            <path d="M128,14 C130.761344,14 133,16.2386557 133,19 C133,21.7613443 130.761344,24 128,24 C125.238656,24 123,21.7613443 123,19 C123,16.2386557 125.238656,14 128,14" id="Fill-32" fill="#03428C"></path>
            <path d="M142,14 C144.761344,14 147,16.2386557 147,19 C147,21.7613443 144.761344,24 142,24 C139.238656,24 137,21.7613443 137,19 C137,16.2386557 139.238656,14 142,14" id="Fill-34" fill="#03428C"></path>
            <path d="M157,14 C159.761344,14 162,16.2386557 162,19 C162,21.7613443 159.761344,24 157,24 C154.238656,24 152,21.7613443 152,19 C152,16.2386557 154.238656,14 157,14" id="Fill-36" fill="#03428C"></path>
            <path d="M170,14 C172.761344,14 175,16.2386557 175,19 C175,21.7613443 172.761344,24 170,24 C167.238656,24 165,21.7613443 165,19 C165,16.2386557 167.238656,14 170,14" id="Fill-38" fill="#03428C"></path>
            <path d="M184,14 C186.761344,14 189,16.2386557 189,19 C189,21.7613443 186.761344,24 184,24 C181.238656,24 179,21.7613443 179,19 C179,16.2386557 181.238656,14 184,14" id="Fill-40" fill="#03428C"></path>
            <path d="M197,14 C199.761344,14 202,16.2386557 202,19 C202,21.7613443 199.761344,24 197,24 C194.238656,24 192,21.7613443 192,19 C192,16.2386557 194.238656,14 197,14" id="Fill-42" fill="#03428C"></path>
            <path d="M211,14 C213.761344,14 216,16.2386557 216,19 C216,21.7613443 213.761344,24 211,24 C208.238656,24 206,21.7613443 206,19 C206,16.2386557 208.238656,14 211,14" id="Fill-44" fill="#03428C"></path>
            <path d="M224,14 C226.761344,14 229,16.2386557 229,19 C229,21.7613443 226.761344,24 224,24 C221.238656,24 219,21.7613443 219,19 C219,16.2386557 221.238656,14 224,14" id="Fill-46" fill="#03428C"></path>
            <path d="M239,14 C241.761344,14 244,16.2386557 244,19 C244,21.7613443 241.761344,24 239,24 C236.238656,24 234,21.7613443 234,19 C234,16.2386557 236.238656,14 239,14" id="Fill-48" fill="#03428C"></path>
            <path d="M362,14 C364.761344,14 367,16.2386557 367,19 C367,21.7613443 364.761344,24 362,24 C359.238656,24 357,21.7613443 357,19 C357,16.2386557 359.238656,14 362,14" id="Fill-50" fill="#03428C"></path>
            <path d="M376,14 C378.761344,14 381,16.2386557 381,19 C381,21.7613443 378.761344,24 376,24 C373.238656,24 371,21.7613443 371,19 C371,16.2386557 373.238656,14 376,14" id="Fill-52" fill="#03428C"></path>
            <path d="M19,28 C21.7613443,28 24,30.2386557 24,33 C24,35.7613443 21.7613443,38 19,38 C16.2386557,38 14,35.7613443 14,33 C14,30.2386557 16.2386557,28 19,28" id="Fill-54" fill="#03428C"></path>
            <path d="M33,28 C35.7613443,28 38,30.2386557 38,33 C38,35.7613443 35.7613443,38 33,38 C30.2386557,38 28,35.7613443 28,33 C28,30.2386557 30.2386557,28 33,28" id="Fill-56" fill="#03428C"></path>
            <path d="M46,28 C48.7613443,28 51,30.2386557 51,33 C51,35.7613443 48.7613443,38 46,38 C43.2386557,38 41,35.7613443 41,33 C41,30.2386557 43.2386557,28 46,28" id="Fill-58" fill="#03428C"></path>
            <path d="M60,28 C62.7613443,28 65,30.2386557 65,33 C65,35.7613443 62.7613443,38 60,38 C57.2386557,38 55,35.7613443 55,33 C55,30.2386557 57.2386557,28 60,28" id="Fill-60" fill="#03428C"></path>
            <path d="M73,28 C75.7613443,28 78,30.2386557 78,33 C78,35.7613443 75.7613443,38 73,38 C70.2386557,38 68,35.7613443 68,33 C68,30.2386557 70.2386557,28 73,28" id="Fill-62" fill="#03428C"></path>
            <path d="M87,28 C89.7613443,28 92,30.2386557 92,33 C92,35.7613443 89.7613443,38 87,38 C84.2386557,38 82,35.7613443 82,33 C82,30.2386557 84.2386557,28 87,28" id="Fill-64" fill="#03428C"></path>
            <path d="M102,28 C104.761344,28 107,30.2386557 107,33 C107,35.7613443 104.761344,38 102,38 C99.2386557,38 97,35.7613443 97,33 C97,30.2386557 99.2386557,28 102,28" id="Fill-66" fill="#03428C"></path>
            <path d="M115,28 C117.761344,28 120,30.2386557 120,33 C120,35.7613443 117.761344,38 115,38 C112.238656,38 110,35.7613443 110,33 C110,30.2386557 112.238656,28 115,28" id="Fill-68" fill="#03428C"></path>
            <path d="M128,28 C130.761344,28 133,30.2386557 133,33 C133,35.7613443 130.761344,38 128,38 C125.238656,38 123,35.7613443 123,33 C123,30.2386557 125.238656,28 128,28" id="Fill-70" fill="#03428C"></path>
            <path d="M142,28 C144.761344,28 147,30.2386557 147,33 C147,35.7613443 144.761344,38 142,38 C139.238656,38 137,35.7613443 137,33 C137,30.2386557 139.238656,28 142,28" id="Fill-72" fill="#03428C"></path>
            <path d="M157,28 C159.761344,28 162,30.2386557 162,33 C162,35.7613443 159.761344,38 157,38 C154.238656,38 152,35.7613443 152,33 C152,30.2386557 154.238656,28 157,28" id="Fill-74" fill="#03428C"></path>
            <path d="M170,28 C172.761344,28 175,30.2386557 175,33 C175,35.7613443 172.761344,38 170,38 C167.238656,38 165,35.7613443 165,33 C165,30.2386557 167.238656,28 170,28" id="Fill-76" fill="#03428C"></path>
            <path d="M184,28 C186.761344,28 189,30.2386557 189,33 C189,35.7613443 186.761344,38 184,38 C181.238656,38 179,35.7613443 179,33 C179,30.2386557 181.238656,28 184,28" id="Fill-78" fill="#03428C"></path>
            <path d="M197,28 C199.761344,28 202,30.2386557 202,33 C202,35.7613443 199.761344,38 197,38 C194.238656,38 192,35.7613443 192,33 C192,30.2386557 194.238656,28 197,28" id="Fill-80" fill="#03428C"></path>
            <path d="M211,28 C213.761344,28 216,30.2386557 216,33 C216,35.7613443 213.761344,38 211,38 C208.238656,38 206,35.7613443 206,33 C206,30.2386557 208.238656,28 211,28" id="Fill-82" fill="#03428C"></path>
            <path d="M224,28 C226.761344,28 229,30.2386557 229,33 C229,35.7613443 226.761344,38 224,38 C221.238656,38 219,35.7613443 219,33 C219,30.2386557 221.238656,28 224,28" id="Fill-84" fill="#03428C"></path>
            <path d="M239,28 C241.761344,28 244,30.2386557 244,33 C244,35.7613443 241.761344,38 239,38 C236.238656,38 234,35.7613443 234,33 C234,30.2386557 236.238656,28 239,28" id="Fill-86" fill="#03428C"></path>
            <path d="M253,28 C255.761344,28 258,30.2386557 258,33 C258,35.7613443 255.761344,38 253,38 C250.238656,38 248,35.7613443 248,33 C248,30.2386557 250.238656,28 253,28" id="Fill-88" fill="#03428C"></path>
            <path d="M266,28 C268.761344,28 271,30.2386557 271,33 C271,35.7613443 268.761344,38 266,38 C263.238656,38 261,35.7613443 261,33 C261,30.2386557 263.238656,28 266,28" id="Fill-90" fill="#03428C"></path>
            <path d="M335,28 C337.761344,28 340,30.2386557 340,33 C340,35.7613443 337.761344,38 335,38 C332.238656,38 330,35.7613443 330,33 C330,30.2386557 332.238656,28 335,28" id="Fill-92" fill="#03428C"></path>
            <path d="M348,28 C350.761344,28 353,30.2386557 353,33 C353,35.7613443 350.761344,38 348,38 C345.238656,38 343,35.7613443 343,33 C343,30.2386557 345.238656,28 348,28" id="Fill-94" fill="#03428C"></path>
            <path d="M362,28 C364.761344,28 367,30.2386557 367,33 C367,35.7613443 364.761344,38 362,38 C359.238656,38 357,35.7613443 357,33 C357,30.2386557 359.238656,28 362,28" id="Fill-96" fill="#03428C"></path>
            <path d="M19,41 C21.7613443,41 24,43.2386557 24,46 C24,48.7613443 21.7613443,51 19,51 C16.2386557,51 14,48.7613443 14,46 C14,43.2386557 16.2386557,41 19,41" id="Fill-98" fill="#03428C"></path>
            <path d="M33,41 C35.7613443,41 38,43.2386557 38,46 C38,48.7613443 35.7613443,51 33,51 C30.2386557,51 28,48.7613443 28,46 C28,43.2386557 30.2386557,41 33,41" id="Fill-100" fill="#03428C"></path>
            <path d="M46,41 C48.7613443,41 51,43.2386557 51,46 C51,48.7613443 48.7613443,51 46,51 C43.2386557,51 41,48.7613443 41,46 C41,43.2386557 43.2386557,41 46,41" id="Fill-102" fill="#03428C"></path>
            <path d="M60,41 C62.7613443,41 65,43.2386557 65,46 C65,48.7613443 62.7613443,51 60,51 C57.2386557,51 55,48.7613443 55,46 C55,43.2386557 57.2386557,41 60,41" id="Fill-104" fill="#03428C"></path>
            <path d="M73,41 C75.7613443,41 78,43.2386557 78,46 C78,48.7613443 75.7613443,51 73,51 C70.2386557,51 68,48.7613443 68,46 C68,43.2386557 70.2386557,41 73,41" id="Fill-106" fill="#03428C"></path>
            <path d="M87,41 C89.7613443,41 92,43.2386557 92,46 C92,48.7613443 89.7613443,51 87,51 C84.2386557,51 82,48.7613443 82,46 C82,43.2386557 84.2386557,41 87,41" id="Fill-108" fill="#03428C"></path>
            <path d="M102,41 C104.761344,41 107,43.2386557 107,46 C107,48.7613443 104.761344,51 102,51 C99.2386557,51 97,48.7613443 97,46 C97,43.2386557 99.2386557,41 102,41" id="Fill-110" fill="#03428C"></path>
            <path d="M115,41 C117.761344,41 120,43.2386557 120,46 C120,48.7613443 117.761344,51 115,51 C112.238656,51 110,48.7613443 110,46 C110,43.2386557 112.238656,41 115,41" id="Fill-112" fill="#03428C"></path>
            <path d="M128,41 C130.761344,41 133,43.2386557 133,46 C133,48.7613443 130.761344,51 128,51 C125.238656,51 123,48.7613443 123,46 C123,43.2386557 125.238656,41 128,41" id="Fill-114" fill="#03428C"></path>
            <path d="M142,41 C144.761344,41 147,43.2386557 147,46 C147,48.7613443 144.761344,51 142,51 C139.238656,51 137,48.7613443 137,46 C137,43.2386557 139.238656,41 142,41" id="Fill-116" fill="#03428C"></path>
            <path d="M157,41 C159.761344,41 162,43.2386557 162,46 C162,48.7613443 159.761344,51 157,51 C154.238656,51 152,48.7613443 152,46 C152,43.2386557 154.238656,41 157,41" id="Fill-118" fill="#03428C"></path>
            <path d="M170,41 C172.761344,41 175,43.2386557 175,46 C175,48.7613443 172.761344,51 170,51 C167.238656,51 165,48.7613443 165,46 C165,43.2386557 167.238656,41 170,41" id="Fill-120" fill="#03428C"></path>
            <path d="M184,41 C186.761344,41 189,43.2386557 189,46 C189,48.7613443 186.761344,51 184,51 C181.238656,51 179,48.7613443 179,46 C179,43.2386557 181.238656,41 184,41" id="Fill-122" fill="#03428C"></path>
            <path d="M197,41 C199.761344,41 202,43.2386557 202,46 C202,48.7613443 199.761344,51 197,51 C194.238656,51 192,48.7613443 192,46 C192,43.2386557 194.238656,41 197,41" id="Fill-124" fill="#03428C"></path>
            <path d="M211,41 C213.761344,41 216,43.2386557 216,46 C216,48.7613443 213.761344,51 211,51 C208.238656,51 206,48.7613443 206,46 C206,43.2386557 208.238656,41 211,41" id="Fill-126" fill="#03428C"></path>
            <path d="M224,41 C226.761344,41 229,43.2386557 229,46 C229,48.7613443 226.761344,51 224,51 C221.238656,51 219,48.7613443 219,46 C219,43.2386557 221.238656,41 224,41" id="Fill-128" fill="#03428C"></path>
            <path d="M239,41 C241.761344,41 244,43.2386557 244,46 C244,48.7613443 241.761344,51 239,51 C236.238656,51 234,48.7613443 234,46 C234,43.2386557 236.238656,41 239,41" id="Fill-130" fill="#03428C"></path>
            <path d="M253,41 C255.761344,41 258,43.2386557 258,46 C258,48.7613443 255.761344,51 253,51 C250.238656,51 248,48.7613443 248,46 C248,43.2386557 250.238656,41 253,41" id="Fill-132" fill="#03428C"></path>
            <path d="M279,41 C281.761344,41 284,43.2386557 284,46 C284,48.7613443 281.761344,51 279,51 C276.238656,51 274,48.7613443 274,46 C274,43.2386557 276.238656,41 279,41" id="Fill-134" fill="#03428C"></path>
            <path d="M335,41 C337.761344,41 340,43.2386557 340,46 C340,48.7613443 337.761344,51 335,51 C332.238656,51 330,48.7613443 330,46 C330,43.2386557 332.238656,41 335,41" id="Fill-136" fill="#03428C"></path>
            <path d="M348,41 C350.761344,41 353,43.2386557 353,46 C353,48.7613443 350.761344,51 348,51 C345.238656,51 343,48.7613443 343,46 C343,43.2386557 345.238656,41 348,41" id="Fill-138" fill="#03428C"></path>
            <path d="M362,41 C364.761344,41 367,43.2386557 367,46 C367,48.7613443 364.761344,51 362,51 C359.238656,51 357,48.7613443 357,46 C357,43.2386557 359.238656,41 362,41" id="Fill-140" fill="#03428C"></path>
            <path d="M5,55 C7.76134428,55 10,57.2386557 10,60 C10,62.7613443 7.76134428,65 5,65 C2.23865572,65 0,62.7613443 0,60 C0,57.2386557 2.23865572,55 5,55" id="Fill-142" fill="#03428C"></path>
            <path d="M19,55 C21.7613443,55 24,57.2386557 24,60 C24,62.7613443 21.7613443,65 19,65 C16.2386557,65 14,62.7613443 14,60 C14,57.2386557 16.2386557,55 19,55" id="Fill-144" fill="#03428C"></path>
            <path d="M33,55 C35.7613443,55 38,57.2386557 38,60 C38,62.7613443 35.7613443,65 33,65 C30.2386557,65 28,62.7613443 28,60 C28,57.2386557 30.2386557,55 33,55" id="Fill-146" fill="#03428C"></path>
            <path d="M46,55 C48.7613443,55 51,57.2386557 51,60 C51,62.7613443 48.7613443,65 46,65 C43.2386557,65 41,62.7613443 41,60 C41,57.2386557 43.2386557,55 46,55" id="Fill-148" fill="#03428C"></path>
            <path d="M60,55 C62.7613443,55 65,57.2386557 65,60 C65,62.7613443 62.7613443,65 60,65 C57.2386557,65 55,62.7613443 55,60 C55,57.2386557 57.2386557,55 60,55" id="Fill-150" fill="#03428C"></path>
            <path d="M73,55 C75.7613443,55 78,57.2386557 78,60 C78,62.7613443 75.7613443,65 73,65 C70.2386557,65 68,62.7613443 68,60 C68,57.2386557 70.2386557,55 73,55" id="Fill-152" fill="#03428C"></path>
            <path d="M87,55 C89.7613443,55 92,57.2386557 92,60 C92,62.7613443 89.7613443,65 87,65 C84.2386557,65 82,62.7613443 82,60 C82,57.2386557 84.2386557,55 87,55" id="Fill-154" fill="#03428C"></path>
            <path d="M102,55 C104.761344,55 107,57.2386557 107,60 C107,62.7613443 104.761344,65 102,65 C99.2386557,65 97,62.7613443 97,60 C97,57.2386557 99.2386557,55 102,55" id="Fill-156" fill="#03428C"></path>
            <path d="M115,55 C117.761344,55 120,57.2386557 120,60 C120,62.7613443 117.761344,65 115,65 C112.238656,65 110,62.7613443 110,60 C110,57.2386557 112.238656,55 115,55" id="Fill-158" fill="#03428C"></path>
            <path d="M128,55 C130.761344,55 133,57.2386557 133,60 C133,62.7613443 130.761344,65 128,65 C125.238656,65 123,62.7613443 123,60 C123,57.2386557 125.238656,55 128,55" id="Fill-160" fill="#03428C"></path>
            <path d="M142,55 C144.761344,55 147,57.2386557 147,60 C147,62.7613443 144.761344,65 142,65 C139.238656,65 137,62.7613443 137,60 C137,57.2386557 139.238656,55 142,55" id="Fill-162" fill="#03428C"></path>
            <path d="M157,55 C159.761344,55 162,57.2386557 162,60 C162,62.7613443 159.761344,65 157,65 C154.238656,65 152,62.7613443 152,60 C152,57.2386557 154.238656,55 157,55" id="Fill-164" fill="#03428C"></path>
            <path d="M170,55 C172.761344,55 175,57.2386557 175,60 C175,62.7613443 172.761344,65 170,65 C167.238656,65 165,62.7613443 165,60 C165,57.2386557 167.238656,55 170,55" id="Fill-166" fill="#03428C"></path>
            <path d="M184,55 C186.761344,55 189,57.2386557 189,60 C189,62.7613443 186.761344,65 184,65 C181.238656,65 179,62.7613443 179,60 C179,57.2386557 181.238656,55 184,55" id="Fill-168" fill="#03428C"></path>
            <path d="M197,55 C199.761344,55 202,57.2386557 202,60 C202,62.7613443 199.761344,65 197,65 C194.238656,65 192,62.7613443 192,60 C192,57.2386557 194.238656,55 197,55" id="Fill-170" fill="#03428C"></path>
            <path d="M211,55 C213.761344,55 216,57.2386557 216,60 C216,62.7613443 213.761344,65 211,65 C208.238656,65 206,62.7613443 206,60 C206,57.2386557 208.238656,55 211,55" id="Fill-172" fill="#03428C"></path>
            <path d="M224,55 C226.761344,55 229,57.2386557 229,60 C229,62.7613443 226.761344,65 224,65 C221.238656,65 219,62.7613443 219,60 C219,57.2386557 221.238656,55 224,55" id="Fill-174" fill="#03428C"></path>
            <path d="M239,55 C241.761344,55 244,57.2386557 244,60 C244,62.7613443 241.761344,65 239,65 C236.238656,65 234,62.7613443 234,60 C234,57.2386557 236.238656,55 239,55" id="Fill-176" fill="#03428C"></path>
            <path d="M253,55 C255.761344,55 258,57.2386557 258,60 C258,62.7613443 255.761344,65 253,65 C250.238656,65 248,62.7613443 248,60 C248,57.2386557 250.238656,55 253,55" id="Fill-178" fill="#03428C"></path>
            <path d="M266,55 C268.761344,55 271,57.2386557 271,60 C271,62.7613443 268.761344,65 266,65 C263.238656,65 261,62.7613443 261,60 C261,57.2386557 263.238656,55 266,55" id="Fill-180" fill="#03428C"></path>
            <path d="M279,55 C281.761344,55 284,57.2386557 284,60 C284,62.7613443 281.761344,65 279,65 C276.238656,65 274,62.7613443 274,60 C274,57.2386557 276.238656,55 279,55" id="Fill-182" fill="#03428C"></path>
            <path d="M294,55 C296.761344,55 299,57.2386557 299,60 C299,62.7613443 296.761344,65 294,65 C291.238656,65 289,62.7613443 289,60 C289,57.2386557 291.238656,55 294,55" id="Fill-184" fill="#03428C"></path>
            <path d="M321,55 C323.761344,55 326,57.2386557 326,60 C326,62.7613443 323.761344,65 321,65 C318.238656,65 316,62.7613443 316,60 C316,57.2386557 318.238656,55 321,55" id="Fill-186" fill="#03428C"></path>
            <path d="M335,55 C337.761344,55 340,57.2386557 340,60 C340,62.7613443 337.761344,65 335,65 C332.238656,65 330,62.7613443 330,60 C330,57.2386557 332.238656,55 335,55" id="Fill-188" fill="#03428C"></path>
            <path d="M348,55 C350.761344,55 353,57.2386557 353,60 C353,62.7613443 350.761344,65 348,65 C345.238656,65 343,62.7613443 343,60 C343,57.2386557 345.238656,55 348,55" id="Fill-190" fill="#03428C"></path>
            <path d="M362,55 C364.761344,55 367,57.2386557 367,60 C367,62.7613443 364.761344,65 362,65 C359.238656,65 357,62.7613443 357,60 C357,57.2386557 359.238656,55 362,55" id="Fill-192" fill="#03428C"></path>
            <path d="M5,68 C7.76134428,68 10,70.2386557 10,73 C10,75.7613443 7.76134428,78 5,78 C2.23865572,78 0,75.7613443 0,73 C0,70.2386557 2.23865572,68 5,68" id="Fill-194" fill="#03428C"></path>
            <path d="M19,68 C21.7613443,68 24,70.2386557 24,73 C24,75.7613443 21.7613443,78 19,78 C16.2386557,78 14,75.7613443 14,73 C14,70.2386557 16.2386557,68 19,68" id="Fill-196" fill="#03428C"></path>
            <path d="M33,68 C35.7613443,68 38,70.2386557 38,73 C38,75.7613443 35.7613443,78 33,78 C30.2386557,78 28,75.7613443 28,73 C28,70.2386557 30.2386557,68 33,68" id="Fill-198" fill="#03428C"></path>
            <path d="M46,68 C48.7613443,68 51,70.2386557 51,73 C51,75.7613443 48.7613443,78 46,78 C43.2386557,78 41,75.7613443 41,73 C41,70.2386557 43.2386557,68 46,68" id="Fill-200" fill="#03428C"></path>
            <path d="M60,68 C62.7613443,68 65,70.2386557 65,73 C65,75.7613443 62.7613443,78 60,78 C57.2386557,78 55,75.7613443 55,73 C55,70.2386557 57.2386557,68 60,68" id="Fill-202" fill="#03428C"></path>
            <path d="M73,68 C75.7613443,68 78,70.2386557 78,73 C78,75.7613443 75.7613443,78 73,78 C70.2386557,78 68,75.7613443 68,73 C68,70.2386557 70.2386557,68 73,68" id="Fill-204" fill="#03428C"></path>
            <path d="M87,68 C89.7613443,68 92,70.2386557 92,73 C92,75.7613443 89.7613443,78 87,78 C84.2386557,78 82,75.7613443 82,73 C82,70.2386557 84.2386557,68 87,68" id="Fill-206" fill="#03428C"></path>
            <path d="M102,68 C104.761344,68 107,70.2386557 107,73 C107,75.7613443 104.761344,78 102,78 C99.2386557,78 97,75.7613443 97,73 C97,70.2386557 99.2386557,68 102,68" id="Fill-208" fill="#03428C"></path>
            <path d="M115,68 C117.761344,68 120,70.2386557 120,73 C120,75.7613443 117.761344,78 115,78 C112.238656,78 110,75.7613443 110,73 C110,70.2386557 112.238656,68 115,68" id="Fill-210" fill="#03428C"></path>
            <path d="M128,68 C130.761344,68 133,70.2386557 133,73 C133,75.7613443 130.761344,78 128,78 C125.238656,78 123,75.7613443 123,73 C123,70.2386557 125.238656,68 128,68" id="Fill-212" fill="#03428C"></path>
            <path d="M142,68 C144.761344,68 147,70.2386557 147,73 C147,75.7613443 144.761344,78 142,78 C139.238656,78 137,75.7613443 137,73 C137,70.2386557 139.238656,68 142,68" id="Fill-214" fill="#03428C"></path>
            <path d="M157,68 C159.761344,68 162,70.2386557 162,73 C162,75.7613443 159.761344,78 157,78 C154.238656,78 152,75.7613443 152,73 C152,70.2386557 154.238656,68 157,68" id="Fill-216" fill="#03428C"></path>
            <path d="M170,68 C172.761344,68 175,70.2386557 175,73 C175,75.7613443 172.761344,78 170,78 C167.238656,78 165,75.7613443 165,73 C165,70.2386557 167.238656,68 170,68" id="Fill-218" fill="#03428C"></path>
            <path d="M184,68 C186.761344,68 189,70.2386557 189,73 C189,75.7613443 186.761344,78 184,78 C181.238656,78 179,75.7613443 179,73 C179,70.2386557 181.238656,68 184,68" id="Fill-220" fill="#03428C"></path>
            <path d="M197,68 C199.761344,68 202,70.2386557 202,73 C202,75.7613443 199.761344,78 197,78 C194.238656,78 192,75.7613443 192,73 C192,70.2386557 194.238656,68 197,68" id="Fill-222" fill="#03428C"></path>
            <path d="M211,68 C213.761344,68 216,70.2386557 216,73 C216,75.7613443 213.761344,78 211,78 C208.238656,78 206,75.7613443 206,73 C206,70.2386557 208.238656,68 211,68" id="Fill-224" fill="#03428C"></path>
            <path d="M224,68 C226.761344,68 229,70.2386557 229,73 C229,75.7613443 226.761344,78 224,78 C221.238656,78 219,75.7613443 219,73 C219,70.2386557 221.238656,68 224,68" id="Fill-226" fill="#03428C"></path>
            <path d="M239,68 C241.761344,68 244,70.2386557 244,73 C244,75.7613443 241.761344,78 239,78 C236.238656,78 234,75.7613443 234,73 C234,70.2386557 236.238656,68 239,68" id="Fill-228" fill="#03428C"></path>
            <path d="M253,68 C255.761344,68 258,70.2386557 258,73 C258,75.7613443 255.761344,78 253,78 C250.238656,78 248,75.7613443 248,73 C248,70.2386557 250.238656,68 253,68" id="Fill-230" fill="#03428C"></path>
            <path d="M266,68 C268.761344,68 271,70.2386557 271,73 C271,75.7613443 268.761344,78 266,78 C263.238656,78 261,75.7613443 261,73 C261,70.2386557 263.238656,68 266,68" id="Fill-232" fill="#03428C"></path>
            <path d="M279,68 C281.761344,68 284,70.2386557 284,73 C284,75.7613443 281.761344,78 279,78 C276.238656,78 274,75.7613443 274,73 C274,70.2386557 276.238656,68 279,68" id="Fill-234" fill="#03428C"></path>
            <path d="M294,68 C296.761344,68 299,70.2386557 299,73 C299,75.7613443 296.761344,78 294,78 C291.238656,78 289,75.7613443 289,73 C289,70.2386557 291.238656,68 294,68" id="Fill-236" fill="#03428C"></path>
            <path d="M308,68 C310.761344,68 313,70.2386557 313,73 C313,75.7613443 310.761344,78 308,78 C305.238656,78 303,75.7613443 303,73 C303,70.2386557 305.238656,68 308,68" id="Fill-238" fill="#03428C"></path>
            <path d="M321,68 C323.761344,68 326,70.2386557 326,73 C326,75.7613443 323.761344,78 321,78 C318.238656,78 316,75.7613443 316,73 C316,70.2386557 318.238656,68 321,68" id="Fill-240" fill="#03428C"></path>
            <path d="M335,68 C337.761344,68 340,70.2386557 340,73 C340,75.7613443 337.761344,78 335,78 C332.238656,78 330,75.7613443 330,73 C330,70.2386557 332.238656,68 335,68" id="Fill-242" fill="#03428C"></path>
            <path d="M348,68 C350.761344,68 353,70.2386557 353,73 C353,75.7613443 350.761344,78 348,78 C345.238656,78 343,75.7613443 343,73 C343,70.2386557 345.238656,68 348,68" id="Fill-244" fill="#03428C"></path>
            <path d="M5,83 C7.76134428,83 10,85.2386557 10,88 C10,90.7613443 7.76134428,93 5,93 C2.23865572,93 0,90.7613443 0,88 C0,85.2386557 2.23865572,83 5,83" id="Fill-246" fill="#03428C"></path>
            <path d="M19,83 C21.7613443,83 24,85.2386557 24,88 C24,90.7613443 21.7613443,93 19,93 C16.2386557,93 14,90.7613443 14,88 C14,85.2386557 16.2386557,83 19,83" id="Fill-248" fill="#03428C"></path>
            <path d="M33,83 C35.7613443,83 38,85.2386557 38,88 C38,90.7613443 35.7613443,93 33,93 C30.2386557,93 28,90.7613443 28,88 C28,85.2386557 30.2386557,83 33,83" id="Fill-250" fill="#03428C"></path>
            <path d="M46,83 C48.7613443,83 51,85.2386557 51,88 C51,90.7613443 48.7613443,93 46,93 C43.2386557,93 41,90.7613443 41,88 C41,85.2386557 43.2386557,83 46,83" id="Fill-252" fill="#03428C"></path>
            <path d="M60,83 C62.7613443,83 65,85.2386557 65,88 C65,90.7613443 62.7613443,93 60,93 C57.2386557,93 55,90.7613443 55,88 C55,85.2386557 57.2386557,83 60,83" id="Fill-254" fill="#03428C"></path>
            <path d="M73,83 C75.7613443,83 78,85.2386557 78,88 C78,90.7613443 75.7613443,93 73,93 C70.2386557,93 68,90.7613443 68,88 C68,85.2386557 70.2386557,83 73,83" id="Fill-256" fill="#03428C"></path>
            <path d="M87,83 C89.7613443,83 92,85.2386557 92,88 C92,90.7613443 89.7613443,93 87,93 C84.2386557,93 82,90.7613443 82,88 C82,85.2386557 84.2386557,83 87,83" id="Fill-258" fill="#03428C"></path>
            <path d="M102,83 C104.761344,83 107,85.2386557 107,88 C107,90.7613443 104.761344,93 102,93 C99.2386557,93 97,90.7613443 97,88 C97,85.2386557 99.2386557,83 102,83" id="Fill-260" fill="#03428C"></path>
            <path d="M115,83 C117.761344,83 120,85.2386557 120,88 C120,90.7613443 117.761344,93 115,93 C112.238656,93 110,90.7613443 110,88 C110,85.2386557 112.238656,83 115,83" id="Fill-262" fill="#03428C"></path>
            <path d="M128,83 C130.761344,83 133,85.2386557 133,88 C133,90.7613443 130.761344,93 128,93 C125.238656,93 123,90.7613443 123,88 C123,85.2386557 125.238656,83 128,83" id="Fill-264" fill="#03428C"></path>
            <path d="M142,83 C144.761344,83 147,85.2386557 147,88 C147,90.7613443 144.761344,93 142,93 C139.238656,93 137,90.7613443 137,88 C137,85.2386557 139.238656,83 142,83" id="Fill-266" fill="#03428C"></path>
            <path d="M157,83 C159.761344,83 162,85.2386557 162,88 C162,90.7613443 159.761344,93 157,93 C154.238656,93 152,90.7613443 152,88 C152,85.2386557 154.238656,83 157,83" id="Fill-268" fill="#03428C"></path>
            <path d="M170,83 C172.761344,83 175,85.2386557 175,88 C175,90.7613443 172.761344,93 170,93 C167.238656,93 165,90.7613443 165,88 C165,85.2386557 167.238656,83 170,83" id="Fill-270" fill="#03428C"></path>
            <path d="M184,83 C186.761344,83 189,85.2386557 189,88 C189,90.7613443 186.761344,93 184,93 C181.238656,93 179,90.7613443 179,88 C179,85.2386557 181.238656,83 184,83" id="Fill-272" fill="#03428C"></path>
            <path d="M197,83 C199.761344,83 202,85.2386557 202,88 C202,90.7613443 199.761344,93 197,93 C194.238656,93 192,90.7613443 192,88 C192,85.2386557 194.238656,83 197,83" id="Fill-274" fill="#03428C"></path>
            <path d="M211,83 C213.761344,83 216,85.2386557 216,88 C216,90.7613443 213.761344,93 211,93 C208.238656,93 206,90.7613443 206,88 C206,85.2386557 208.238656,83 211,83" id="Fill-276" fill="#03428C"></path>
            <path d="M224,83 C226.761344,83 229,85.2386557 229,88 C229,90.7613443 226.761344,93 224,93 C221.238656,93 219,90.7613443 219,88 C219,85.2386557 221.238656,83 224,83" id="Fill-278" fill="#03428C"></path>
            <path d="M239,83 C241.761344,83 244,85.2386557 244,88 C244,90.7613443 241.761344,93 239,93 C236.238656,93 234,90.7613443 234,88 C234,85.2386557 236.238656,83 239,83" id="Fill-280" fill="#03428C"></path>
            <path d="M253,83 C255.761344,83 258,85.2386557 258,88 C258,90.7613443 255.761344,93 253,93 C250.238656,93 248,90.7613443 248,88 C248,85.2386557 250.238656,83 253,83" id="Fill-282" fill="#03428C"></path>
            <path d="M266,83 C268.761344,83 271,85.2386557 271,88 C271,90.7613443 268.761344,93 266,93 C263.238656,93 261,90.7613443 261,88 C261,85.2386557 263.238656,83 266,83" id="Fill-284" fill="#03428C"></path>
            <path d="M279,83 C281.761344,83 284,85.2386557 284,88 C284,90.7613443 281.761344,93 279,93 C276.238656,93 274,90.7613443 274,88 C274,85.2386557 276.238656,83 279,83" id="Fill-286" fill="#03428C"></path>
            <path d="M294,83 C296.761344,83 299,85.2386557 299,88 C299,90.7613443 296.761344,93 294,93 C291.238656,93 289,90.7613443 289,88 C289,85.2386557 291.238656,83 294,83" id="Fill-288" fill="#03428C"></path>
            <path d="M308,83 C310.761344,83 313,85.2386557 313,88 C313,90.7613443 310.761344,93 308,93 C305.238656,93 303,90.7613443 303,88 C303,85.2386557 305.238656,83 308,83" id="Fill-290" fill="#03428C"></path>
            <path d="M321,83 C323.761344,83 326,85.2386557 326,88 C326,90.7613443 323.761344,93 321,93 C318.238656,93 316,90.7613443 316,88 C316,85.2386557 318.238656,83 321,83" id="Fill-292" fill="#03428C"></path>
            <path d="M335,83 C337.761344,83 340,85.2386557 340,88 C340,90.7613443 337.761344,93 335,93 C332.238656,93 330,90.7613443 330,88 C330,85.2386557 332.238656,83 335,83" id="Fill-294" fill="#03428C"></path>
            <path d="M348,83 C350.761344,83 353,85.2386557 353,88 C353,90.7613443 350.761344,93 348,93 C345.238656,93 343,90.7613443 343,88 C343,85.2386557 345.238656,83 348,83" id="Fill-296" fill="#0096DB"></path>
            <path d="M19,97 C21.7613443,97 24,99.2386557 24,102 C24,104.761344 21.7613443,107 19,107 C16.2386557,107 14,104.761344 14,102 C14,99.2386557 16.2386557,97 19,97" id="Fill-298" fill="#03428C"></path>
            <path d="M33,97 C35.7613443,97 38,99.2386557 38,102 C38,104.761344 35.7613443,107 33,107 C30.2386557,107 28,104.761344 28,102 C28,99.2386557 30.2386557,97 33,97" id="Fill-300" fill="#03428C"></path>
            <path d="M46,97 C48.7613443,97 51,99.2386557 51,102 C51,104.761344 48.7613443,107 46,107 C43.2386557,107 41,104.761344 41,102 C41,99.2386557 43.2386557,97 46,97" id="Fill-302" fill="#03428C"></path>
            <path d="M60,97 C62.7613443,97 65,99.2386557 65,102 C65,104.761344 62.7613443,107 60,107 C57.2386557,107 55,104.761344 55,102 C55,99.2386557 57.2386557,97 60,97" id="Fill-304" fill="#03428C"></path>
            <path d="M73,97 C75.7613443,97 78,99.2386557 78,102 C78,104.761344 75.7613443,107 73,107 C70.2386557,107 68,104.761344 68,102 C68,99.2386557 70.2386557,97 73,97" id="Fill-306" fill="#03428C"></path>
            <path d="M87,97 C89.7613443,97 92,99.2386557 92,102 C92,104.761344 89.7613443,107 87,107 C84.2386557,107 82,104.761344 82,102 C82,99.2386557 84.2386557,97 87,97" id="Fill-308" fill="#03428C"></path>
            <path d="M102,97 C104.761344,97 107,99.2386557 107,102 C107,104.761344 104.761344,107 102,107 C99.2386557,107 97,104.761344 97,102 C97,99.2386557 99.2386557,97 102,97" id="Fill-310" fill="#03428C"></path>
            <path d="M115,97 C117.761344,97 120,99.2386557 120,102 C120,104.761344 117.761344,107 115,107 C112.238656,107 110,104.761344 110,102 C110,99.2386557 112.238656,97 115,97" id="Fill-312" fill="#03428C"></path>
            <path d="M128,97 C130.761344,97 133,99.2386557 133,102 C133,104.761344 130.761344,107 128,107 C125.238656,107 123,104.761344 123,102 C123,99.2386557 125.238656,97 128,97" id="Fill-314" fill="#03428C"></path>
            <path d="M142,97 C144.761344,97 147,99.2386557 147,102 C147,104.761344 144.761344,107 142,107 C139.238656,107 137,104.761344 137,102 C137,99.2386557 139.238656,97 142,97" id="Fill-316" fill="#03428C"></path>
            <path d="M157,97 C159.761344,97 162,99.2386557 162,102 C162,104.761344 159.761344,107 157,107 C154.238656,107 152,104.761344 152,102 C152,99.2386557 154.238656,97 157,97" id="Fill-318" fill="#03428C"></path>
            <path d="M170,97 C172.761344,97 175,99.2386557 175,102 C175,104.761344 172.761344,107 170,107 C167.238656,107 165,104.761344 165,102 C165,99.2386557 167.238656,97 170,97" id="Fill-320" fill="#03428C"></path>
            <path d="M184,97 C186.761344,97 189,99.2386557 189,102 C189,104.761344 186.761344,107 184,107 C181.238656,107 179,104.761344 179,102 C179,99.2386557 181.238656,97 184,97" id="Fill-322" fill="#03428C"></path>
            <path d="M197,97 C199.761344,97 202,99.2386557 202,102 C202,104.761344 199.761344,107 197,107 C194.238656,107 192,104.761344 192,102 C192,99.2386557 194.238656,97 197,97" id="Fill-324" fill="#03428C"></path>
            <path d="M211,97 C213.761344,97 216,99.2386557 216,102 C216,104.761344 213.761344,107 211,107 C208.238656,107 206,104.761344 206,102 C206,99.2386557 208.238656,97 211,97" id="Fill-326" fill="#03428C"></path>
            <path d="M224,97 C226.761344,97 229,99.2386557 229,102 C229,104.761344 226.761344,107 224,107 C221.238656,107 219,104.761344 219,102 C219,99.2386557 221.238656,97 224,97" id="Fill-328" fill="#03428C"></path>
            <path d="M239,97 C241.761344,97 244,99.2386557 244,102 C244,104.761344 241.761344,107 239,107 C236.238656,107 234,104.761344 234,102 C234,99.2386557 236.238656,97 239,97" id="Fill-330" fill="#03428C"></path>
            <path d="M253,97 C255.761344,97 258,99.2386557 258,102 C258,104.761344 255.761344,107 253,107 C250.238656,107 248,104.761344 248,102 C248,99.2386557 250.238656,97 253,97" id="Fill-332" fill="#03428C"></path>
            <path d="M266,97 C268.761344,97 271,99.2386557 271,102 C271,104.761344 268.761344,107 266,107 C263.238656,107 261,104.761344 261,102 C261,99.2386557 263.238656,97 266,97" id="Fill-334" fill="#03428C"></path>
            <path d="M279,97 C281.761344,97 284,99.2386557 284,102 C284,104.761344 281.761344,107 279,107 C276.238656,107 274,104.761344 274,102 C274,99.2386557 276.238656,97 279,97" id="Fill-336" fill="#03428C"></path>
            <path d="M294,97 C296.761344,97 299,99.2386557 299,102 C299,104.761344 296.761344,107 294,107 C291.238656,107 289,104.761344 289,102 C289,99.2386557 291.238656,97 294,97" id="Fill-338" fill="#03428C"></path>
            <path d="M308,97 C310.761344,97 313,99.2386557 313,102 C313,104.761344 310.761344,107 308,107 C305.238656,107 303,104.761344 303,102 C303,99.2386557 305.238656,97 308,97" id="Fill-340" fill="#03428C"></path>
            <path d="M321,97 C323.761344,97 326,99.2386557 326,102 C326,104.761344 323.761344,107 321,107 C318.238656,107 316,104.761344 316,102 C316,99.2386557 318.238656,97 321,97" id="Fill-342" fill="#03428C"></path>
            <path d="M335,97 C337.761344,97 340,99.2386557 340,102 C340,104.761344 337.761344,107 335,107 C332.238656,107 330,104.761344 330,102 C330,99.2386557 332.238656,97 335,97" id="Fill-344" fill="#03428C"></path>
            <path d="M348,97 C350.761344,97 353,99.2386557 353,102 C353,104.761344 350.761344,107 348,107 C345.238656,107 343,104.761344 343,102 C343,99.2386557 345.238656,97 348,97" id="Fill-346" fill="#03428C"></path>
            <path d="M19,110 C21.7613443,110 24,112.238656 24,115 C24,117.761344 21.7613443,120 19,120 C16.2386557,120 14,117.761344 14,115 C14,112.238656 16.2386557,110 19,110" id="Fill-348" fill="#03428C"></path>
            <path d="M33,110 C35.7613443,110 38,112.238656 38,115 C38,117.761344 35.7613443,120 33,120 C30.2386557,120 28,117.761344 28,115 C28,112.238656 30.2386557,110 33,110" id="Fill-350" fill="#03428C"></path>
            <path d="M46,110 C48.7613443,110 51,112.238656 51,115 C51,117.761344 48.7613443,120 46,120 C43.2386557,120 41,117.761344 41,115 C41,112.238656 43.2386557,110 46,110" id="Fill-352" fill="#03428C"></path>
            <path d="M60,110 C62.7613443,110 65,112.238656 65,115 C65,117.761344 62.7613443,120 60,120 C57.2386557,120 55,117.761344 55,115 C55,112.238656 57.2386557,110 60,110" id="Fill-354" fill="#03428C"></path>
            <path d="M73,110 C75.7613443,110 78,112.238656 78,115 C78,117.761344 75.7613443,120 73,120 C70.2386557,120 68,117.761344 68,115 C68,112.238656 70.2386557,110 73,110" id="Fill-356" fill="#03428C"></path>
            <path d="M87,110 C89.7613443,110 92,112.238656 92,115 C92,117.761344 89.7613443,120 87,120 C84.2386557,120 82,117.761344 82,115 C82,112.238656 84.2386557,110 87,110" id="Fill-358" fill="#03428C"></path>
            <path d="M102,110 C104.761344,110 107,112.238656 107,115 C107,117.761344 104.761344,120 102,120 C99.2386557,120 97,117.761344 97,115 C97,112.238656 99.2386557,110 102,110" id="Fill-360" fill="#03428C"></path>
            <path d="M115,110 C117.761344,110 120,112.238656 120,115 C120,117.761344 117.761344,120 115,120 C112.238656,120 110,117.761344 110,115 C110,112.238656 112.238656,110 115,110" id="Fill-362" fill="#03428C"></path>
            <path d="M128,110 C130.761344,110 133,112.238656 133,115 C133,117.761344 130.761344,120 128,120 C125.238656,120 123,117.761344 123,115 C123,112.238656 125.238656,110 128,110" id="Fill-364" fill="#03428C"></path>
            <path d="M142,110 C144.761344,110 147,112.238656 147,115 C147,117.761344 144.761344,120 142,120 C139.238656,120 137,117.761344 137,115 C137,112.238656 139.238656,110 142,110" id="Fill-366" fill="#03428C"></path>
            <path d="M157,110 C159.761344,110 162,112.238656 162,115 C162,117.761344 159.761344,120 157,120 C154.238656,120 152,117.761344 152,115 C152,112.238656 154.238656,110 157,110" id="Fill-368" fill="#03428C"></path>
            <path d="M170,110 C172.761344,110 175,112.238656 175,115 C175,117.761344 172.761344,120 170,120 C167.238656,120 165,117.761344 165,115 C165,112.238656 167.238656,110 170,110" id="Fill-370" fill="#03428C"></path>
            <path d="M184,110 C186.761344,110 189,112.238656 189,115 C189,117.761344 186.761344,120 184,120 C181.238656,120 179,117.761344 179,115 C179,112.238656 181.238656,110 184,110" id="Fill-372" fill="#03428C"></path>
            <path d="M197,110 C199.761344,110 202,112.238656 202,115 C202,117.761344 199.761344,120 197,120 C194.238656,120 192,117.761344 192,115 C192,112.238656 194.238656,110 197,110" id="Fill-374" fill="#03428C"></path>
            <path d="M211,110 C213.761344,110 216,112.238656 216,115 C216,117.761344 213.761344,120 211,120 C208.238656,120 206,117.761344 206,115 C206,112.238656 208.238656,110 211,110" id="Fill-376" fill="#03428C"></path>
            <path d="M224,110 C226.761344,110 229,112.238656 229,115 C229,117.761344 226.761344,120 224,120 C221.238656,120 219,117.761344 219,115 C219,112.238656 221.238656,110 224,110" id="Fill-378" fill="#03428C"></path>
            <path d="M239,110 C241.761344,110 244,112.238656 244,115 C244,117.761344 241.761344,120 239,120 C236.238656,120 234,117.761344 234,115 C234,112.238656 236.238656,110 239,110" id="Fill-380" fill="#03428C"></path>
            <path d="M253,110 C255.761344,110 258,112.238656 258,115 C258,117.761344 255.761344,120 253,120 C250.238656,120 248,117.761344 248,115 C248,112.238656 250.238656,110 253,110" id="Fill-382" fill="#03428C"></path>
            <path d="M266,110 C268.761344,110 271,112.238656 271,115 C271,117.761344 268.761344,120 266,120 C263.238656,120 261,117.761344 261,115 C261,112.238656 263.238656,110 266,110" id="Fill-384" fill="#03428C"></path>
            <path d="M279,110 C281.761344,110 284,112.238656 284,115 C284,117.761344 281.761344,120 279,120 C276.238656,120 274,117.761344 274,115 C274,112.238656 276.238656,110 279,110" id="Fill-386" fill="#03428C"></path>
            <path d="M294,110 C296.761344,110 299,112.238656 299,115 C299,117.761344 296.761344,120 294,120 C291.238656,120 289,117.761344 289,115 C289,112.238656 291.238656,110 294,110" id="Fill-388" fill="#03428C"></path>
            <path d="M308,110 C310.761344,110 313,112.238656 313,115 C313,117.761344 310.761344,120 308,120 C305.238656,120 303,117.761344 303,115 C303,112.238656 305.238656,110 308,110" id="Fill-390" fill="#03428C"></path>
            <path d="M321,110 C323.761344,110 326,112.238656 326,115 C326,117.761344 323.761344,120 321,120 C318.238656,120 316,117.761344 316,115 C316,112.238656 318.238656,110 321,110" id="Fill-392" fill="#03428C"></path>
            <path d="M335,110 C337.761344,110 340,112.238656 340,115 C340,117.761344 337.761344,120 335,120 C332.238656,120 330,117.761344 330,115 C330,112.238656 332.238656,110 335,110" id="Fill-394" fill="#03428C"></path>
            <path d="M348,110 C350.761344,110 353,112.238656 353,115 C353,117.761344 350.761344,120 348,120 C345.238656,120 343,117.761344 343,115 C343,112.238656 345.238656,110 348,110" id="Fill-396" fill="#03428C"></path>
            <path d="M33,123 C35.7613443,123 38,125.238656 38,128 C38,130.761344 35.7613443,133 33,133 C30.2386557,133 28,130.761344 28,128 C28,125.238656 30.2386557,123 33,123" id="Fill-398" fill="#03428C"></path>
            <path d="M46,123 C48.7613443,123 51,125.238656 51,128 C51,130.761344 48.7613443,133 46,133 C43.2386557,133 41,130.761344 41,128 C41,125.238656 43.2386557,123 46,123" id="Fill-400" fill="#03428C"></path>
            <path d="M60,123 C62.7613443,123 65,125.238656 65,128 C65,130.761344 62.7613443,133 60,133 C57.2386557,133 55,130.761344 55,128 C55,125.238656 57.2386557,123 60,123" id="Fill-402" fill="#03428C"></path>
            <path d="M73,123 C75.7613443,123 78,125.238656 78,128 C78,130.761344 75.7613443,133 73,133 C70.2386557,133 68,130.761344 68,128 C68,125.238656 70.2386557,123 73,123" id="Fill-404" fill="#03428C"></path>
            <path d="M87,123 C89.7613443,123 92,125.238656 92,128 C92,130.761344 89.7613443,133 87,133 C84.2386557,133 82,130.761344 82,128 C82,125.238656 84.2386557,123 87,123" id="Fill-406" fill="#03428C"></path>
            <path d="M102,123 C104.761344,123 107,125.238656 107,128 C107,130.761344 104.761344,133 102,133 C99.2386557,133 97,130.761344 97,128 C97,125.238656 99.2386557,123 102,123" id="Fill-408" fill="#03428C"></path>
            <path d="M115,123 C117.761344,123 120,125.238656 120,128 C120,130.761344 117.761344,133 115,133 C112.238656,133 110,130.761344 110,128 C110,125.238656 112.238656,123 115,123" id="Fill-410" fill="#03428C"></path>
            <path d="M128,123 C130.761344,123 133,125.238656 133,128 C133,130.761344 130.761344,133 128,133 C125.238656,133 123,130.761344 123,128 C123,125.238656 125.238656,123 128,123" id="Fill-412" fill="#03428C"></path>
            <path d="M142,123 C144.761344,123 147,125.238656 147,128 C147,130.761344 144.761344,133 142,133 C139.238656,133 137,130.761344 137,128 C137,125.238656 139.238656,123 142,123" id="Fill-414" fill="#03428C"></path>
            <path d="M157,123 C159.761344,123 162,125.238656 162,128 C162,130.761344 159.761344,133 157,133 C154.238656,133 152,130.761344 152,128 C152,125.238656 154.238656,123 157,123" id="Fill-416" fill="#03428C"></path>
            <path d="M170,123 C172.761344,123 175,125.238656 175,128 C175,130.761344 172.761344,133 170,133 C167.238656,133 165,130.761344 165,128 C165,125.238656 167.238656,123 170,123" id="Fill-418" fill="#03428C"></path>
            <path d="M184,123 C186.761344,123 189,125.238656 189,128 C189,130.761344 186.761344,133 184,133 C181.238656,133 179,130.761344 179,128 C179,125.238656 181.238656,123 184,123" id="Fill-420" fill="#03428C"></path>
            <path d="M197,123 C199.761344,123 202,125.238656 202,128 C202,130.761344 199.761344,133 197,133 C194.238656,133 192,130.761344 192,128 C192,125.238656 194.238656,123 197,123" id="Fill-422" fill="#03428C"></path>
            <path d="M211,123 C213.761344,123 216,125.238656 216,128 C216,130.761344 213.761344,133 211,133 C208.238656,133 206,130.761344 206,128 C206,125.238656 208.238656,123 211,123" id="Fill-424" fill="#03428C"></path>
            <path d="M224,123 C226.761344,123 229,125.238656 229,128 C229,130.761344 226.761344,133 224,133 C221.238656,133 219,130.761344 219,128 C219,125.238656 221.238656,123 224,123" id="Fill-426" fill="#03428C"></path>
            <path d="M239,123 C241.761344,123 244,125.238656 244,128 C244,130.761344 241.761344,133 239,133 C236.238656,133 234,130.761344 234,128 C234,125.238656 236.238656,123 239,123" id="Fill-428" fill="#03428C"></path>
            <path d="M253,123 C255.761344,123 258,125.238656 258,128 C258,130.761344 255.761344,133 253,133 C250.238656,133 248,130.761344 248,128 C248,125.238656 250.238656,123 253,123" id="Fill-430" fill="#03428C"></path>
            <path d="M266,123 C268.761344,123 271,125.238656 271,128 C271,130.761344 268.761344,133 266,133 C263.238656,133 261,130.761344 261,128 C261,125.238656 263.238656,123 266,123" id="Fill-432" fill="#03428C"></path>
            <path d="M279,123 C281.761344,123 284,125.238656 284,128 C284,130.761344 281.761344,133 279,133 C276.238656,133 274,130.761344 274,128 C274,125.238656 276.238656,123 279,123" id="Fill-434" fill="#03428C"></path>
            <path d="M294,123 C296.761344,123 299,125.238656 299,128 C299,130.761344 296.761344,133 294,133 C291.238656,133 289,130.761344 289,128 C289,125.238656 291.238656,123 294,123" id="Fill-436" fill="#03428C"></path>
            <path d="M308,123 C310.761344,123 313,125.238656 313,128 C313,130.761344 310.761344,133 308,133 C305.238656,133 303,130.761344 303,128 C303,125.238656 305.238656,123 308,123" id="Fill-438" fill="#03428C"></path>
            <path d="M321,123 C323.761344,123 326,125.238656 326,128 C326,130.761344 323.761344,133 321,133 C318.238656,133 316,130.761344 316,128 C316,125.238656 318.238656,123 321,123" id="Fill-440" fill="#03428C"></path>
            <path d="M335,123 C337.761344,123 340,125.238656 340,128 C340,130.761344 337.761344,133 335,133 C332.238656,133 330,130.761344 330,128 C330,125.238656 332.238656,123 335,123" id="Fill-442" fill="#03428C"></path>
            <path d="M348,123 C350.761344,123 353,125.238656 353,128 C353,130.761344 350.761344,133 348,133 C345.238656,133 343,130.761344 343,128 C343,125.238656 345.238656,123 348,123" id="Fill-444" fill="#03428C"></path>
            <path d="M33,137 C35.7613443,137 38,139.238656 38,142 C38,144.761344 35.7613443,147 33,147 C30.2386557,147 28,144.761344 28,142 C28,139.238656 30.2386557,137 33,137" id="Fill-446" fill="#03428C"></path>
            <path d="M46,137 C48.7613443,137 51,139.238656 51,142 C51,144.761344 48.7613443,147 46,147 C43.2386557,147 41,144.761344 41,142 C41,139.238656 43.2386557,137 46,137" id="Fill-448" fill="#03428C"></path>
            <path d="M60,137 C62.7613443,137 65,139.238656 65,142 C65,144.761344 62.7613443,147 60,147 C57.2386557,147 55,144.761344 55,142 C55,139.238656 57.2386557,137 60,137" id="Fill-450" fill="#03428C"></path>
            <path d="M73,137 C75.7613443,137 78,139.238656 78,142 C78,144.761344 75.7613443,147 73,147 C70.2386557,147 68,144.761344 68,142 C68,139.238656 70.2386557,137 73,137" id="Fill-452" fill="#03428C"></path>
            <path d="M87,137 C89.7613443,137 92,139.238656 92,142 C92,144.761344 89.7613443,147 87,147 C84.2386557,147 82,144.761344 82,142 C82,139.238656 84.2386557,137 87,137" id="Fill-454" fill="#03428C"></path>
            <path d="M102,137 C104.761344,137 107,139.238656 107,142 C107,144.761344 104.761344,147 102,147 C99.2386557,147 97,144.761344 97,142 C97,139.238656 99.2386557,137 102,137" id="Fill-456" fill="#03428C"></path>
            <path d="M115,137 C117.761344,137 120,139.238656 120,142 C120,144.761344 117.761344,147 115,147 C112.238656,147 110,144.761344 110,142 C110,139.238656 112.238656,137 115,137" id="Fill-458" fill="#03428C"></path>
            <path d="M128,137 C130.761344,137 133,139.238656 133,142 C133,144.761344 130.761344,147 128,147 C125.238656,147 123,144.761344 123,142 C123,139.238656 125.238656,137 128,137" id="Fill-460" fill="#03428C"></path>
            <path d="M142,137 C144.761344,137 147,139.238656 147,142 C147,144.761344 144.761344,147 142,147 C139.238656,147 137,144.761344 137,142 C137,139.238656 139.238656,137 142,137" id="Fill-462" fill="#03428C"></path>
            <path d="M157,137 C159.761344,137 162,139.238656 162,142 C162,144.761344 159.761344,147 157,147 C154.238656,147 152,144.761344 152,142 C152,139.238656 154.238656,137 157,137" id="Fill-464" fill="#03428C"></path>
            <path d="M170,137 C172.761344,137 175,139.238656 175,142 C175,144.761344 172.761344,147 170,147 C167.238656,147 165,144.761344 165,142 C165,139.238656 167.238656,137 170,137" id="Fill-466" fill="#03428C"></path>
            <path d="M184,137 C186.761344,137 189,139.238656 189,142 C189,144.761344 186.761344,147 184,147 C181.238656,147 179,144.761344 179,142 C179,139.238656 181.238656,137 184,137" id="Fill-468" fill="#03428C"></path>
            <path d="M197,137 C199.761344,137 202,139.238656 202,142 C202,144.761344 199.761344,147 197,147 C194.238656,147 192,144.761344 192,142 C192,139.238656 194.238656,137 197,137" id="Fill-470" fill="#03428C"></path>
            <path d="M211,137 C213.761344,137 216,139.238656 216,142 C216,144.761344 213.761344,147 211,147 C208.238656,147 206,144.761344 206,142 C206,139.238656 208.238656,137 211,137" id="Fill-472" fill="#03428C"></path>
            <path d="M224,137 C226.761344,137 229,139.238656 229,142 C229,144.761344 226.761344,147 224,147 C221.238656,147 219,144.761344 219,142 C219,139.238656 221.238656,137 224,137" id="Fill-474" fill="#03428C"></path>
            <path d="M239,137 C241.761344,137 244,139.238656 244,142 C244,144.761344 241.761344,147 239,147 C236.238656,147 234,144.761344 234,142 C234,139.238656 236.238656,137 239,137" id="Fill-476" fill="#03428C"></path>
            <path d="M253,137 C255.761344,137 258,139.238656 258,142 C258,144.761344 255.761344,147 253,147 C250.238656,147 248,144.761344 248,142 C248,139.238656 250.238656,137 253,137" id="Fill-478" fill="#03428C"></path>
            <path d="M266,137 C268.761344,137 271,139.238656 271,142 C271,144.761344 268.761344,147 266,147 C263.238656,147 261,144.761344 261,142 C261,139.238656 263.238656,137 266,137" id="Fill-480" fill="#03428C"></path>
            <path d="M279,137 C281.761344,137 284,139.238656 284,142 C284,144.761344 281.761344,147 279,147 C276.238656,147 274,144.761344 274,142 C274,139.238656 276.238656,137 279,137" id="Fill-482" fill="#03428C"></path>
            <path d="M294,137 C296.761344,137 299,139.238656 299,142 C299,144.761344 296.761344,147 294,147 C291.238656,147 289,144.761344 289,142 C289,139.238656 291.238656,137 294,137" id="Fill-484" fill="#03428C"></path>
            <path d="M308,137 C310.761344,137 313,139.238656 313,142 C313,144.761344 310.761344,147 308,147 C305.238656,147 303,144.761344 303,142 C303,139.238656 305.238656,137 308,137" id="Fill-486" fill="#03428C"></path>
            <path d="M321,137 C323.761344,137 326,139.238656 326,142 C326,144.761344 323.761344,147 321,147 C318.238656,147 316,144.761344 316,142 C316,139.238656 318.238656,137 321,137" id="Fill-488" fill="#03428C"></path>
            <path d="M335,137 C337.761344,137 340,139.238656 340,142 C340,144.761344 337.761344,147 335,147 C332.238656,147 330,144.761344 330,142 C330,139.238656 332.238656,137 335,137" id="Fill-490" fill="#03428C"></path>
            <path d="M46,152 C48.7613443,152 51,154.238656 51,157 C51,159.761344 48.7613443,162 46,162 C43.2386557,162 41,159.761344 41,157 C41,154.238656 43.2386557,152 46,152" id="Fill-492" fill="#03428C"></path>
            <path d="M60,152 C62.7613443,152 65,154.238656 65,157 C65,159.761344 62.7613443,162 60,162 C57.2386557,162 55,159.761344 55,157 C55,154.238656 57.2386557,152 60,152" id="Fill-494" fill="#03428C"></path>
            <path d="M73,152 C75.7613443,152 78,154.238656 78,157 C78,159.761344 75.7613443,162 73,162 C70.2386557,162 68,159.761344 68,157 C68,154.238656 70.2386557,152 73,152" id="Fill-496" fill="#03428C"></path>
            <path d="M87,152 C89.7613443,152 92,154.238656 92,157 C92,159.761344 89.7613443,162 87,162 C84.2386557,162 82,159.761344 82,157 C82,154.238656 84.2386557,152 87,152" id="Fill-498" fill="#03428C"></path>
            <path d="M102,152 C104.761344,152 107,154.238656 107,157 C107,159.761344 104.761344,162 102,162 C99.2386557,162 97,159.761344 97,157 C97,154.238656 99.2386557,152 102,152" id="Fill-500" fill="#03428C"></path>
            <path d="M115,152 C117.761344,152 120,154.238656 120,157 C120,159.761344 117.761344,162 115,162 C112.238656,162 110,159.761344 110,157 C110,154.238656 112.238656,152 115,152" id="Fill-502" fill="#03428C"></path>
            <path d="M128,152 C130.761344,152 133,154.238656 133,157 C133,159.761344 130.761344,162 128,162 C125.238656,162 123,159.761344 123,157 C123,154.238656 125.238656,152 128,152" id="Fill-504" fill="#03428C"></path>
            <path d="M142,152 C144.761344,152 147,154.238656 147,157 C147,159.761344 144.761344,162 142,162 C139.238656,162 137,159.761344 137,157 C137,154.238656 139.238656,152 142,152" id="Fill-506" fill="#03428C"></path>
            <path d="M157,152 C159.761344,152 162,154.238656 162,157 C162,159.761344 159.761344,162 157,162 C154.238656,162 152,159.761344 152,157 C152,154.238656 154.238656,152 157,152" id="Fill-508" fill="#03428C"></path>
            <path d="M170,152 C172.761344,152 175,154.238656 175,157 C175,159.761344 172.761344,162 170,162 C167.238656,162 165,159.761344 165,157 C165,154.238656 167.238656,152 170,152" id="Fill-510" fill="#03428C"></path>
            <path d="M184,152 C186.761344,152 189,154.238656 189,157 C189,159.761344 186.761344,162 184,162 C181.238656,162 179,159.761344 179,157 C179,154.238656 181.238656,152 184,152" id="Fill-512" fill="#03428C"></path>
            <path d="M197,152 C199.761344,152 202,154.238656 202,157 C202,159.761344 199.761344,162 197,162 C194.238656,162 192,159.761344 192,157 C192,154.238656 194.238656,152 197,152" id="Fill-514" fill="#03428C"></path>
            <path d="M211,152 C213.761344,152 216,154.238656 216,157 C216,159.761344 213.761344,162 211,162 C208.238656,162 206,159.761344 206,157 C206,154.238656 208.238656,152 211,152" id="Fill-516" fill="#03428C"></path>
            <path d="M224,152 C226.761344,152 229,154.238656 229,157 C229,159.761344 226.761344,162 224,162 C221.238656,162 219,159.761344 219,157 C219,154.238656 221.238656,152 224,152" id="Fill-518" fill="#03428C"></path>
            <path d="M239,152 C241.761344,152 244,154.238656 244,157 C244,159.761344 241.761344,162 239,162 C236.238656,162 234,159.761344 234,157 C234,154.238656 236.238656,152 239,152" id="Fill-520" fill="#03428C"></path>
            <path d="M253,152 C255.761344,152 258,154.238656 258,157 C258,159.761344 255.761344,162 253,162 C250.238656,162 248,159.761344 248,157 C248,154.238656 250.238656,152 253,152" id="Fill-522" fill="#03428C"></path>
            <path d="M266,152 C268.761344,152 271,154.238656 271,157 C271,159.761344 268.761344,162 266,162 C263.238656,162 261,159.761344 261,157 C261,154.238656 263.238656,152 266,152" id="Fill-524" fill="#03428C"></path>
            <path d="M279,152 C281.761344,152 284,154.238656 284,157 C284,159.761344 281.761344,162 279,162 C276.238656,162 274,159.761344 274,157 C274,154.238656 276.238656,152 279,152" id="Fill-526" fill="#03428C"></path>
            <path d="M294,152 C296.761344,152 299,154.238656 299,157 C299,159.761344 296.761344,162 294,162 C291.238656,162 289,159.761344 289,157 C289,154.238656 291.238656,152 294,152" id="Fill-528" fill="#03428C"></path>
            <path d="M308,152 C310.761344,152 313,154.238656 313,157 C313,159.761344 310.761344,162 308,162 C305.238656,162 303,159.761344 303,157 C303,154.238656 305.238656,152 308,152" id="Fill-530" fill="#03428C"></path>
            <path d="M321,152 C323.761344,152 326,154.238656 326,157 C326,159.761344 323.761344,162 321,162 C318.238656,162 316,159.761344 316,157 C316,154.238656 318.238656,152 321,152" id="Fill-532" fill="#03428C"></path>
            <path d="M87,165 C89.7613443,165 92,167.238656 92,170 C92,172.761344 89.7613443,175 87,175 C84.2386557,175 82,172.761344 82,170 C82,167.238656 84.2386557,165 87,165" id="Fill-534" fill="#03428C"></path>
            <path d="M102,165 C104.761344,165 107,167.238656 107,170 C107,172.761344 104.761344,175 102,175 C99.2386557,175 97,172.761344 97,170 C97,167.238656 99.2386557,165 102,165" id="Fill-536" fill="#03428C"></path>
            <path d="M115,165 C117.761344,165 120,167.238656 120,170 C120,172.761344 117.761344,175 115,175 C112.238656,175 110,172.761344 110,170 C110,167.238656 112.238656,165 115,165" id="Fill-538" fill="#03428C"></path>
            <path d="M128,165 C130.761344,165 133,167.238656 133,170 C133,172.761344 130.761344,175 128,175 C125.238656,175 123,172.761344 123,170 C123,167.238656 125.238656,165 128,165" id="Fill-540" fill="#03428C"></path>
            <path d="M142,165 C144.761344,165 147,167.238656 147,170 C147,172.761344 144.761344,175 142,175 C139.238656,175 137,172.761344 137,170 C137,167.238656 139.238656,165 142,165" id="Fill-542" fill="#03428C"></path>
            <path d="M157,165 C159.761344,165 162,167.238656 162,170 C162,172.761344 159.761344,175 157,175 C154.238656,175 152,172.761344 152,170 C152,167.238656 154.238656,165 157,165" id="Fill-544" fill="#03428C"></path>
            <path d="M170,165 C172.761344,165 175,167.238656 175,170 C175,172.761344 172.761344,175 170,175 C167.238656,175 165,172.761344 165,170 C165,167.238656 167.238656,165 170,165" id="Fill-546" fill="#03428C"></path>
            <path d="M184,165 C186.761344,165 189,167.238656 189,170 C189,172.761344 186.761344,175 184,175 C181.238656,175 179,172.761344 179,170 C179,167.238656 181.238656,165 184,165" id="Fill-548" fill="#03428C"></path>
            <path d="M197,165 C199.761344,165 202,167.238656 202,170 C202,172.761344 199.761344,175 197,175 C194.238656,175 192,172.761344 192,170 C192,167.238656 194.238656,165 197,165" id="Fill-550" fill="#03428C"></path>
            <path d="M211,165 C213.761344,165 216,167.238656 216,170 C216,172.761344 213.761344,175 211,175 C208.238656,175 206,172.761344 206,170 C206,167.238656 208.238656,165 211,165" id="Fill-552" fill="#03428C"></path>
            <path d="M224,165 C226.761344,165 229,167.238656 229,170 C229,172.761344 226.761344,175 224,175 C221.238656,175 219,172.761344 219,170 C219,167.238656 221.238656,165 224,165" id="Fill-554" fill="#03428C"></path>
            <path d="M239,165 C241.761344,165 244,167.238656 244,170 C244,172.761344 241.761344,175 239,175 C236.238656,175 234,172.761344 234,170 C234,167.238656 236.238656,165 239,165" id="Fill-556" fill="#03428C"></path>
            <path d="M253,165 C255.761344,165 258,167.238656 258,170 C258,172.761344 255.761344,175 253,175 C250.238656,175 248,172.761344 248,170 C248,167.238656 250.238656,165 253,165" id="Fill-558" fill="#03428C"></path>
            <path d="M266,165 C268.761344,165 271,167.238656 271,170 C271,172.761344 268.761344,175 266,175 C263.238656,175 261,172.761344 261,170 C261,167.238656 263.238656,165 266,165" id="Fill-560" fill="#03428C"></path>
            <path d="M279,165 C281.761344,165 284,167.238656 284,170 C284,172.761344 281.761344,175 279,175 C276.238656,175 274,172.761344 274,170 C274,167.238656 276.238656,165 279,165" id="Fill-562" fill="#03428C"></path>
            <path d="M294,165 C296.761344,165 299,167.238656 299,170 C299,172.761344 296.761344,175 294,175 C291.238656,175 289,172.761344 289,170 C289,167.238656 291.238656,165 294,165" id="Fill-564" fill="#03428C"></path>
            <path d="M308,165 C310.761344,165 313,167.238656 313,170 C313,172.761344 310.761344,175 308,175 C305.238656,175 303,172.761344 303,170 C303,167.238656 305.238656,165 308,165" id="Fill-566" fill="#03428C"></path>
            <path d="M321,165 C323.761344,165 326,167.238656 326,170 C326,172.761344 323.761344,175 321,175 C318.238656,175 316,172.761344 316,170 C316,167.238656 318.238656,165 321,165" id="Fill-568" fill="#03428C"></path>
            <path d="M142,179 C144.761344,179 147,181.238656 147,184 C147,186.761344 144.761344,189 142,189 C139.238656,189 137,186.761344 137,184 C137,181.238656 139.238656,179 142,179" id="Fill-570" fill="#03428C"></path>
            <path d="M157,179 C159.761344,179 162,181.238656 162,184 C162,186.761344 159.761344,189 157,189 C154.238656,189 152,186.761344 152,184 C152,181.238656 154.238656,179 157,179" id="Fill-572" fill="#03428C"></path>
            <path d="M170,179 C172.761344,179 175,181.238656 175,184 C175,186.761344 172.761344,189 170,189 C167.238656,189 165,186.761344 165,184 C165,181.238656 167.238656,179 170,179" id="Fill-574" fill="#03428C"></path>
            <path d="M184,179 C186.761344,179 189,181.238656 189,184 C189,186.761344 186.761344,189 184,189 C181.238656,189 179,186.761344 179,184 C179,181.238656 181.238656,179 184,179" id="Fill-576" fill="#03428C"></path>
            <path d="M197,179 C199.761344,179 202,181.238656 202,184 C202,186.761344 199.761344,189 197,189 C194.238656,189 192,186.761344 192,184 C192,181.238656 194.238656,179 197,179" id="Fill-578" fill="#03428C"></path>
            <path d="M211,179 C213.761344,179 216,181.238656 216,184 C216,186.761344 213.761344,189 211,189 C208.238656,189 206,186.761344 206,184 C206,181.238656 208.238656,179 211,179" id="Fill-580" fill="#03428C"></path>
            <path d="M224,179 C226.761344,179 229,181.238656 229,184 C229,186.761344 226.761344,189 224,189 C221.238656,189 219,186.761344 219,184 C219,181.238656 221.238656,179 224,179" id="Fill-582" fill="#03428C"></path>
            <path d="M239,179 C241.761344,179 244,181.238656 244,184 C244,186.761344 241.761344,189 239,189 C236.238656,189 234,186.761344 234,184 C234,181.238656 236.238656,179 239,179" id="Fill-584" fill="#03428C"></path>
            <path d="M253,179 C255.761344,179 258,181.238656 258,184 C258,186.761344 255.761344,189 253,189 C250.238656,189 248,186.761344 248,184 C248,181.238656 250.238656,179 253,179" id="Fill-586" fill="#03428C"></path>
            <path d="M266,179 C268.761344,179 271,181.238656 271,184 C271,186.761344 268.761344,189 266,189 C263.238656,189 261,186.761344 261,184 C261,181.238656 263.238656,179 266,179" id="Fill-588" fill="#03428C"></path>
            <path d="M294,179 C296.761344,179 299,181.238656 299,184 C299,186.761344 296.761344,189 294,189 C291.238656,189 289,186.761344 289,184 C289,181.238656 291.238656,179 294,179" id="Fill-590" fill="#03428C"></path>
            <path d="M308,179 C310.761344,179 313,181.238656 313,184 C313,186.761344 310.761344,189 308,189 C305.238656,189 303,186.761344 303,184 C303,181.238656 305.238656,179 308,179" id="Fill-592" fill="#03428C"></path>
            <path d="M321,179 C323.761344,179 326,181.238656 326,184 C326,186.761344 323.761344,189 321,189 C318.238656,189 316,186.761344 316,184 C316,181.238656 318.238656,179 321,179" id="Fill-594" fill="#03428C"></path>
            <path d="M170,192 C172.761344,192 175,194.238656 175,197 C175,199.761344 172.761344,202 170,202 C167.238656,202 165,199.761344 165,197 C165,194.238656 167.238656,192 170,192" id="Fill-596" fill="#03428C"></path>
            <path d="M184,192 C186.761344,192 189,194.238656 189,197 C189,199.761344 186.761344,202 184,202 C181.238656,202 179,199.761344 179,197 C179,194.238656 181.238656,192 184,192" id="Fill-598" fill="#03428C"></path>
            <path d="M197,192 C199.761344,192 202,194.238656 202,197 C202,199.761344 199.761344,202 197,202 C194.238656,202 192,199.761344 192,197 C192,194.238656 194.238656,192 197,192" id="Fill-600" fill="#03428C"></path>
            <path d="M211,192 C213.761344,192 216,194.238656 216,197 C216,199.761344 213.761344,202 211,202 C208.238656,202 206,199.761344 206,197 C206,194.238656 208.238656,192 211,192" id="Fill-602" fill="#03428C"></path>
            <path d="M253,192 C255.761344,192 258,194.238656 258,197 C258,199.761344 255.761344,202 253,202 C250.238656,202 248,199.761344 248,197 C248,194.238656 250.238656,192 253,192" id="Fill-604" fill="#03428C"></path>
            <path d="M321,192 C323.761344,192 326,194.238656 326,197 C326,199.761344 323.761344,202 321,202 C318.238656,202 316,199.761344 316,197 C316,194.238656 318.238656,192 321,192" id="Fill-606" fill="#03428C"></path>
            <path d="M335,192 C337.761344,192 340,194.238656 340,197 C340,199.761344 337.761344,202 335,202 C332.238656,202 330,199.761344 330,197 C330,194.238656 332.238656,192 335,192" id="Fill-608" fill="#03428C"></path>
            <path d="M184,206 C186.761344,206 189,208.238656 189,211 C189,213.761344 186.761344,216 184,216 C181.238656,216 179,213.761344 179,211 C179,208.238656 181.238656,206 184,206" id="Fill-610" fill="#03428C"></path>
            <path d="M197,206 C199.761344,206 202,208.238656 202,211 C202,213.761344 199.761344,216 197,216 C194.238656,216 192,213.761344 192,211 C192,208.238656 194.238656,206 197,206" id="Fill-612" fill="#03428C"></path>
            <path d="M340,211 C340,213.761344 337.761344,216 335,216 C332.238656,216 330,213.761344 330,211 C330,208.238656 332.238656,206 335,206 C337.761344,206 340,208.238656 340,211 Z" id="Fill-614" fill="#0096DB"></path>
            <path d="M197,220 C199.761344,220 202,222.238656 202,225 C202,227.761344 199.761344,230 197,230 C194.238656,230 192,227.761344 192,225 C192,222.238656 194.238656,220 197,220" id="Fill-616" fill="#03428C"></path>
        </g>
    </g>
</svg>
